AnekGurmukhi-ExpandedExtraBold.ufo
<glyph name="M" format="2">
  <advance width="2018"/>
  <unicode hex="004D"/>
  <anchor x="1009" y="0" name="bottom"/>
  <anchor x="1009" y="1278" name="top"/>
  <outline>
    <contour>
      <point x="114" y="0" type="line"/>
      <point x="511" y="0" type="line"/>
      <point x="527" y="468" type="line"/>
      <point x="541" y="863" type="line"/>
      <point x="563" y="863" type="line"/>
      <point x="817" y="154" type="line"/>
      <point x="1202" y="154" type="line"/>
      <point x="1453" y="863" type="line"/>
      <point x="1474" y="863" type="line"/>
      <point x="1489" y="468" type="line"/>
      <point x="1507" y="0" type="line"/>
      <point x="1904" y="0" type="line"/>
      <point x="1836" y="1278" type="line"/>
      <point x="1273" y="1278" type="line"/>
      <point x="1019" y="544" type="line"/>
      <point x="997" y="544" type="line"/>
      <point x="746" y="1278" type="line"/>
      <point x="182" y="1278" type="line"/>
    </contour>
  </outline>
</glyph>
<glyph name="Danda.gm" format="2">
  <advance width="742"/>
  <unicode hex="0964"/>
  <outline>
    <contour>
      <point x="176" y="0" type="line"/>
      <point x="566" y="0" type="line"/>
      <point x="566" y="1219" type="line"/>
      <point x="176" y="1219" type="line"/>
    </contour>
  </outline>
</glyph>
<glyph name="Doubledanda.gm" format="2">
  <advance width="1362"/>
  <unicode hex="0965"/>
  <outline>
    <contour>
      <point x="802" y="0" type="line"/>
      <point x="1186" y="0" type="line"/>
      <point x="1186" y="1226" type="line"/>
      <point x="802" y="1226" type="line"/>
    </contour>
    <contour>
      <point x="176" y="0" type="line"/>
      <point x="560" y="0" type="line"/>
      <point x="560" y="1226" type="line"/>
      <point x="176" y="1226" type="line"/>
    </contour>
  </outline>
</glyph>
<glyph name="AddakBindi.gm" format="2">
  <unicode hex="0A01"/>
  <anchor x="440" y="1200" name="_top"/>
  <outline>
    <contour>
      <point x="228" y="1689" type="curve" smooth="yes"/>
      <point x="313" y="1689"/>
      <point x="348" y="1729"/>
      <point x="348" y="1794" type="curve" smooth="yes"/>
      <point x="348" y="1796" type="line" smooth="yes"/>
      <point x="348" y="1859"/>
      <point x="313" y="1901"/>
      <point x="228" y="1901" type="curve" smooth="yes"/>
      <point x="143" y="1901"/>
      <point x="108" y="1859"/>
      <point x="108" y="1795" type="curve" smooth="yes"/>
      <point x="108" y="1792" type="line" smooth="yes"/>
      <point x="108" y="1730"/>
      <point x="143" y="1689"/>
    </contour>
    <component base="Addak.gm"/>
  </outline>
</glyph>
<glyph name="Bindi.gm" format="2">
  <unicode hex="0A02"/>
  <anchor x="600" y="1200" name="_top"/>
  <outline>
    <contour>
      <point x="225" y="1433" type="curve" smooth="yes"/>
      <point x="377" y="1433"/>
      <point x="439" y="1505"/>
      <point x="439" y="1620" type="curve" smooth="yes"/>
      <point x="439" y="1624" type="line" smooth="yes"/>
      <point x="439" y="1737"/>
      <point x="377" y="1811"/>
      <point x="225" y="1811" type="curve" smooth="yes"/>
      <point x="73" y="1811"/>
      <point x="11" y="1736"/>
      <point x="11" y="1623" type="curve" smooth="yes"/>
      <point x="11" y="1618" type="line" smooth="yes"/>
      <point x="11" y="1506"/>
      <point x="73" y="1433"/>
    </contour>
  </outline>
</glyph>
<glyph name="Visarga.gm" format="2">
  <advance width="768"/>
  <unicode hex="0A03"/>
  <outline>
    <contour>
      <point x="384" y="625" type="curve" smooth="yes"/>
      <point x="519" y="625"/>
      <point x="588" y="697"/>
      <point x="588" y="812" type="curve" smooth="yes"/>
      <point x="588" y="816" type="line" smooth="yes"/>
      <point x="588" y="929"/>
      <point x="519" y="1003"/>
      <point x="384" y="1003" type="curve" smooth="yes"/>
      <point x="249" y="1003"/>
      <point x="180" y="928"/>
      <point x="180" y="816" type="curve" smooth="yes"/>
      <point x="180" y="812" type="line" smooth="yes"/>
      <point x="180" y="698"/>
      <point x="249" y="625"/>
    </contour>
    <contour>
      <point x="384" y="45" type="curve" smooth="yes"/>
      <point x="519" y="45"/>
      <point x="588" y="117"/>
      <point x="588" y="232" type="curve" smooth="yes"/>
      <point x="588" y="236" type="line" smooth="yes"/>
      <point x="588" y="349"/>
      <point x="519" y="423"/>
      <point x="384" y="423" type="curve" smooth="yes"/>
      <point x="249" y="423"/>
      <point x="180" y="348"/>
      <point x="180" y="236" type="curve" smooth="yes"/>
      <point x="180" y="232" type="line" smooth="yes"/>
      <point x="180" y="118"/>
      <point x="249" y="45"/>
    </contour>
  </outline>
</glyph>
<glyph name="VowelA.gm" format="2">
  <advance width="2104"/>
  <unicode hex="0A05"/>
  <anchor x="2151" y="1200" name="top"/>
  <outline>
    <contour>
      <point x="843" y="64" type="curve"/>
      <point x="1241" y="64" type="line"/>
      <point x="1267" y="177"/>
      <point x="1285" y="377"/>
      <point x="1285" y="564" type="curve" smooth="yes"/>
      <point x="1285" y="688"/>
      <point x="1268" y="931"/>
      <point x="1242" y="1099" type="curve"/>
      <point x="931" y="1099" type="line"/>
      <point x="343" y="758" type="line"/>
      <point x="343" y="398" type="line"/>
      <point x="1004" y="764" type="line"/>
      <point x="872" y="751" type="line"/>
      <point x="883" y="674"/>
      <point x="888" y="608"/>
      <point x="888" y="552" type="curve" smooth="yes"/>
      <point x="888" y="390"/>
      <point x="871" y="208"/>
    </contour>
    <contour>
      <point x="115" y="254" type="curve"/>
      <point x="513" y="254" type="line"/>
      <point x="541" y="388"/>
      <point x="557" y="571"/>
      <point x="557" y="748" type="curve" smooth="yes"/>
      <point x="557" y="871"/>
      <point x="542" y="1073"/>
      <point x="514" y="1221" type="curve"/>
      <point x="-4" y="1221" type="line"/>
      <point x="17" y="942" type="line"/>
      <point x="145" y="942" type="line"/>
      <point x="156" y="870"/>
      <point x="160" y="799"/>
      <point x="160" y="742" type="curve" smooth="yes"/>
      <point x="160" y="580"/>
      <point x="143" y="398"/>
    </contour>
    <contour>
      <point x="1075" y="260" type="line"/>
      <point x="1735" y="608" type="line"/>
      <point x="1735" y="972" type="line"/>
      <point x="1075" y="619" type="line"/>
    </contour>
    <component base="_cap.shiro_left"/>
    <component base="_danda" xOffset="1411"/>
  </outline>
</glyph>
<glyph name="VowelEe.gm" format="2">
  <advance width="1625"/>
  <unicode hex="0A0F"/>
  <anchor x="1953" y="1401" name="top1"/>
  <outline>
    <contour>
      <point x="959" y="-44" type="curve" smooth="yes"/>
      <point x="1172" y="-44"/>
      <point x="1346" y="-9"/>
      <point x="1492" y="44" type="curve"/>
      <point x="1513" y="348" type="line"/>
      <point x="1356" y="298"/>
      <point x="1181" y="263"/>
      <point x="965" y="263" type="curve" smooth="yes"/>
      <point x="709" y="263"/>
      <point x="520" y="334"/>
      <point x="520" y="431" type="curve"/>
      <point x="520" y="463" type="line"/>
      <point x="440" y="375" type="line"/>
      <point x="683" y="433"/>
      <point x="1064" y="479"/>
      <point x="1466" y="497" type="curve"/>
      <point x="1466" y="1095" type="line"/>
      <point x="1074" y="1095" type="line"/>
      <point x="1074" y="751" type="line"/>
      <point x="962" y="744"/>
      <point x="848" y="732"/>
      <point x="735" y="717" type="curve"/>
      <point x="686" y="700" type="line"/>
      <point x="487" y="675"/>
      <point x="294" y="643"/>
      <point x="126" y="605" type="curve"/>
      <point x="126" y="513" type="line"/>
      <point x="126" y="202"/>
      <point x="379" y="-44"/>
    </contour>
    <contour>
      <point x="576" y="682" type="line"/>
      <point x="766" y="689" type="line"/>
      <point x="890" y="729" type="line"/>
      <point x="681" y="729"/>
      <point x="590" y="823"/>
      <point x="590" y="935" type="curve" smooth="yes"/>
      <point x="590" y="1107" type="line"/>
      <point x="136" y="1107" type="line"/>
      <point x="136" y="958" type="line" smooth="yes"/>
      <point x="136" y="759"/>
      <point x="308" y="698"/>
      <point x="576" y="696" type="curve"/>
    </contour>
    <contour>
      <point x="45" y="942" type="line"/>
      <point x="369" y="942" type="line"/>
      <point x="388" y="956" type="line"/>
      <point x="1277" y="956" type="line"/>
      <point x="1297" y="942" type="line"/>
      <point x="1598" y="942" type="line"/>
      <point x="1598" y="1221" type="line"/>
      <point x="45" y="1221" type="line"/>
    </contour>
    <contour>
      <point x="1259" y="1189" type="line"/>
      <point x="1446" y="1189" type="line"/>
      <point x="1416" y="1672"/>
      <point x="1171" y="1789"/>
      <point x="711" y="1789" type="curve" smooth="yes"/>
      <point x="613" y="1789"/>
      <point x="517" y="1783"/>
      <point x="430" y="1773" type="curve"/>
      <point x="400" y="1447" type="line"/>
      <point x="491" y="1456"/>
      <point x="643" y="1463"/>
      <point x="671" y="1463" type="curve" smooth="yes"/>
      <point x="1153" y="1463"/>
      <point x="1237" y="1344"/>
      <point x="1258" y="1196" type="curve" smooth="yes"/>
    </contour>
    <component base="_cap.shiro_left"/>
    <component base="_cap.shiro_right" xOffset="1324"/>
  </outline>
</glyph>
<glyph name="VowelOo.gm" format="2">
  <advance width="1712"/>
  <unicode hex="0A13"/>
  <outline>
    <contour>
      <point x="921" y="-37" type="curve" smooth="yes"/>
      <point x="1366" y="-37"/>
      <point x="1571" y="106"/>
      <point x="1571" y="341" type="curve" smooth="yes"/>
      <point x="1571" y="344" type="line" smooth="yes"/>
      <point x="1571" y="531"/>
      <point x="1434" y="621"/>
      <point x="1146" y="621" type="curve"/>
      <point x="1263" y="526" type="line"/>
      <point x="1263" y="626" type="line"/>
      <point x="1539" y="632"/>
      <point x="1630" y="778"/>
      <point x="1630" y="990" type="curve" smooth="yes"/>
      <point x="1630" y="1066" type="line"/>
      <point x="1244" y="1066" type="line"/>
      <point x="1244" y="979" type="line" smooth="yes"/>
      <point x="1244" y="867"/>
      <point x="1151" y="764"/>
      <point x="969" y="764" type="curve" smooth="yes"/>
      <point x="311" y="764" type="line"/>
      <point x="311" y="483" type="line"/>
      <point x="965" y="483" type="line" smooth="yes"/>
      <point x="1099" y="483"/>
      <point x="1169" y="449"/>
      <point x="1169" y="383" type="curve" smooth="yes"/>
      <point x="1169" y="382" type="line" smooth="yes"/>
      <point x="1169" y="306"/>
      <point x="1088" y="266"/>
      <point x="903" y="266" type="curve" smooth="yes"/>
      <point x="606" y="266"/>
      <point x="491" y="407"/>
      <point x="491" y="753" type="curve" smooth="yes"/>
      <point x="491" y="958" type="line"/>
      <point x="491" y="1306"/>
      <point x="637" y="1428"/>
      <point x="1010" y="1428" type="curve" smooth="yes"/>
      <point x="1141" y="1428"/>
      <point x="1292" y="1406"/>
      <point x="1418" y="1368" type="curve"/>
      <point x="1398" y="1657" type="line"/>
      <point x="1277" y="1704"/>
      <point x="1120" y="1731"/>
      <point x="974" y="1731" type="curve" smooth="yes"/>
      <point x="379" y="1731"/>
      <point x="107" y="1478"/>
      <point x="107" y="958" type="curve"/>
      <point x="107" y="753" type="line" smooth="yes"/>
      <point x="107" y="234"/>
      <point x="365" y="-37"/>
    </contour>
    <contour>
      <point x="18" y="942" type="line"/>
      <point x="312" y="942" type="line"/>
      <point x="317" y="956" type="line"/>
      <point x="1510" y="956" type="line"/>
      <point x="1518" y="942" type="line"/>
      <point x="1709" y="942" type="line"/>
      <point x="1709" y="1221" type="line"/>
      <point x="18" y="1221" type="line"/>
    </contour>
    <component base="_cap.shiro_left"/>
    <component base="_cap.shiro_right" xOffset="1411"/>
  </outline>
</glyph>
<glyph name="Ka.gm" format="2">
  <advance width="1725"/>
  <unicode hex="0A15"/>
  <anchor x="1832" y="100" name="bottom"/>
  <anchor x="1811" y="100" name="bottom1"/>
  <anchor x="1815" y="1200" name="top"/>
  <outline>
    <contour>
      <point x="27" y="941" type="line"/>
      <point x="1730" y="941" type="line"/>
      <point x="1730" y="1221" type="line"/>
      <point x="27" y="1221" type="line"/>
    </contour>
    <contour>
      <point x="1212" y="0" type="line"/>
      <point x="1620" y="0" type="line"/>
      <point x="1609" y="78" type="line" smooth="yes"/>
      <point x="1574" y="326"/>
      <point x="1462" y="449"/>
      <point x="1283" y="576" type="curve"/>
      <point x="1271" y="579" type="line"/>
      <point x="1111" y="753"/>
      <point x="903" y="844"/>
      <point x="630" y="844" type="curve" smooth="yes"/>
      <point x="272" y="844"/>
      <point x="87" y="705"/>
      <point x="87" y="466" type="curve" smooth="yes"/>
      <point x="87" y="465" type="line" smooth="yes"/>
      <point x="87" y="224"/>
      <point x="294" y="85"/>
      <point x="659" y="85" type="curve" smooth="yes"/>
      <point x="983" y="85"/>
      <point x="1168" y="184"/>
      <point x="1282" y="342" type="curve"/>
      <point x="1284" y="358" type="line"/>
      <point x="1446" y="491"/>
      <point x="1565" y="693"/>
      <point x="1596" y="919" type="curve" smooth="yes"/>
      <point x="1616" y="1064" type="line"/>
      <point x="1203" y="1059" type="line"/>
      <point x="1187" y="930" type="line" smooth="yes"/>
      <point x="1173" y="816"/>
      <point x="1118" y="649"/>
      <point x="1084" y="591" type="curve"/>
      <point x="1084" y="541" type="line"/>
      <point x="1084" y="429"/>
      <point x="873" y="388"/>
      <point x="707" y="388" type="curve" smooth="yes"/>
      <point x="545" y="388"/>
      <point x="482" y="412"/>
      <point x="482" y="461" type="curve" smooth="yes"/>
      <point x="482" y="463" type="line" smooth="yes"/>
      <point x="482" y="513"/>
      <point x="545" y="541"/>
      <point x="707" y="541" type="curve" smooth="yes"/>
      <point x="873" y="541"/>
      <point x="1091" y="490"/>
      <point x="1091" y="362" type="curve"/>
      <point x="1091" y="343" type="line"/>
      <point x="1133" y="286"/>
      <point x="1181" y="197"/>
      <point x="1201" y="70" type="curve" smooth="yes"/>
    </contour>
    <component base="_cap.shiro_left"/>
    <component base="_cap.shiro_right" xOffset="1424"/>
  </outline>
</glyph>
<glyph name="Kha.gm" format="2">
  <advance width="1712"/>
  <unicode hex="0A16"/>
  <anchor x="1812" y="100" name="bottom"/>
  <anchor x="1791" y="100" name="bottom1"/>
  <anchor x="1777" y="1200" name="top"/>
  <outline>
    <contour>
      <point x="784" y="109" type="curve" smooth="yes"/>
      <point x="923" y="109"/>
      <point x="1044" y="134"/>
      <point x="1106" y="152" type="curve"/>
      <point x="1179" y="380" type="line"/>
      <point x="1201" y="380" type="line"/>
      <point x="1194" y="485" type="line"/>
      <point x="1131" y="448"/>
      <point x="1005" y="419"/>
      <point x="877" y="419" type="curve" smooth="yes"/>
      <point x="710" y="419"/>
      <point x="592" y="445"/>
      <point x="502" y="509" type="curve"/>
      <point x="516" y="472" type="line"/>
      <point x="555" y="590"/>
      <point x="581" y="738"/>
      <point x="581" y="924" type="curve" smooth="yes"/>
      <point x="581" y="1013"/>
      <point x="576" y="1112"/>
      <point x="564" y="1221" type="curve"/>
      <point x="38" y="1221" type="line"/>
      <point x="38" y="942" type="line"/>
      <point x="177" y="942" type="line"/>
      <point x="181" y="907"/>
      <point x="182" y="872"/>
      <point x="182" y="836" type="curve" smooth="yes"/>
      <point x="182" y="667"/>
      <point x="143" y="495"/>
      <point x="80" y="366" type="curve"/>
      <point x="233" y="216"/>
      <point x="453" y="109"/>
    </contour>
    <contour>
      <point x="351" y="646" type="line"/>
      <point x="1368" y="646" type="line"/>
      <point x="1368" y="926" type="line"/>
      <point x="351" y="926" type="line"/>
    </contour>
    <component base="_danda" xOffset="1019"/>
    <component base="_cap.shiro_left"/>
  </outline>
</glyph>
<glyph name="Ga.gm" format="2">
  <advance width="2183"/>
  <unicode hex="0A17"/>
  <anchor x="2283" y="100" name="bottom"/>
  <anchor x="2090" y="90" name="bottom1"/>
  <anchor x="2248" y="1200" name="top"/>
  <outline>
    <contour>
      <point x="774" y="-46" type="curve" smooth="yes"/>
      <point x="1144" y="-46"/>
      <point x="1377" y="101"/>
      <point x="1377" y="402" type="curve" smooth="yes"/>
      <point x="1377" y="970" type="line"/>
      <point x="994" y="970" type="line"/>
      <point x="994" y="648" type="line"/>
      <point x="994" y="624" type="line"/>
      <point x="994" y="416" type="line" smooth="yes"/>
      <point x="994" y="313"/>
      <point x="909" y="265"/>
      <point x="777" y="265" type="curve" smooth="yes"/>
      <point x="609" y="265"/>
      <point x="507" y="330"/>
      <point x="507" y="415" type="curve" smooth="yes"/>
      <point x="507" y="417" type="line" smooth="yes"/>
      <point x="507" y="475"/>
      <point x="543" y="496"/>
      <point x="623" y="496" type="curve" smooth="yes"/>
      <point x="1192" y="496" type="line"/>
      <point x="1192" y="787" type="line"/>
      <point x="552" y="787" type="line" smooth="yes"/>
      <point x="234" y="787"/>
      <point x="103" y="663"/>
      <point x="103" y="438" type="curve" smooth="yes"/>
      <point x="103" y="425" type="line" smooth="yes"/>
      <point x="103" y="173"/>
      <point x="327" y="-46"/>
    </contour>
    <contour>
      <point x="41" y="942" type="line"/>
      <point x="1880" y="942" type="line"/>
      <point x="1880" y="1221" type="line"/>
      <point x="41" y="1221" type="line"/>
    </contour>
    <component base="_danda" xOffset="1490"/>
    <component base="_cap.shiro_left"/>
  </outline>
</glyph>
<glyph name="Gha.gm" format="2">
  <advance width="2072"/>
  <unicode hex="0A18"/>
  <anchor x="2172" y="100" name="bottom"/>
  <anchor x="1957" y="100" name="bottom1"/>
  <anchor x="2137" y="1200" name="top"/>
  <outline>
    <contour>
      <point x="666" y="167" type="curve" smooth="yes"/>
      <point x="753" y="167"/>
      <point x="825" y="178"/>
      <point x="875" y="190" type="curve"/>
      <point x="915" y="380" type="line"/>
      <point x="1091" y="380" type="line"/>
      <point x="970" y="625" type="line"/>
      <point x="939" y="533"/>
      <point x="887" y="481"/>
      <point x="718" y="481" type="curve" smooth="yes"/>
      <point x="614" y="481"/>
      <point x="536" y="514"/>
      <point x="502" y="549" type="curve"/>
      <point x="506" y="511" type="line"/>
      <point x="559" y="627"/>
      <point x="578" y="754"/>
      <point x="578" y="924" type="curve" smooth="yes"/>
      <point x="578" y="1013"/>
      <point x="573" y="1112"/>
      <point x="561" y="1221" type="curve"/>
      <point x="44" y="1221" type="line"/>
      <point x="44" y="942" type="line"/>
      <point x="174" y="942" type="line"/>
      <point x="178" y="907"/>
      <point x="179" y="872"/>
      <point x="179" y="836" type="curve" smooth="yes"/>
      <point x="179" y="671"/>
      <point x="169" y="550"/>
      <point x="83" y="415" type="curve"/>
      <point x="194" y="266"/>
      <point x="399" y="167"/>
    </contour>
    <contour>
      <point x="1328" y="167" type="curve" smooth="yes"/>
      <point x="1395" y="167"/>
      <point x="1438" y="177"/>
      <point x="1467" y="188" type="curve"/>
      <point x="1539" y="385" type="line"/>
      <point x="1580" y="385" type="line"/>
      <point x="1566" y="536" type="line"/>
      <point x="1547" y="503"/>
      <point x="1495" y="481"/>
      <point x="1417" y="481" type="curve" smooth="yes"/>
      <point x="1337" y="481"/>
      <point x="1279" y="500"/>
      <point x="1249" y="549" type="curve"/>
      <point x="892" y="535" type="line"/>
      <point x="892" y="301"/>
      <point x="1042" y="167"/>
    </contour>
    <contour>
      <point x="1267" y="1200" type="line"/>
      <point x="873" y="1150" type="line"/>
      <point x="873" y="746" type="line" smooth="yes"/>
      <point x="873" y="692"/>
      <point x="875" y="556"/>
      <point x="878" y="488" type="curve"/>
      <point x="1267" y="484" type="line"/>
      <point x="1267" y="568"/>
      <point x="1267" y="645"/>
      <point x="1267" y="737" type="curve" smooth="yes"/>
    </contour>
    <component base="_danda" xOffset="1379"/>
    <component base="_cap.shiro_left"/>
  </outline>
</glyph>
<glyph name="Nga.gm" format="2">
  <advance width="1692"/>
  <unicode hex="0A19"/>
  <anchor x="1485" y="50" name="bottom"/>
  <anchor x="1785" y="0" name="bottom1"/>
  <anchor x="1749" y="1200" name="top"/>
  <outline>
    <contour>
      <point x="47" y="942" type="line"/>
      <point x="470" y="942" type="line"/>
      <point x="482" y="956" type="line"/>
      <point x="1631" y="941" type="line"/>
      <point x="1631" y="1221" type="line"/>
      <point x="47" y="1221" type="line"/>
    </contour>
    <contour>
      <point x="734" y="-47" type="curve" smooth="yes"/>
      <point x="998" y="-47"/>
      <point x="1185" y="16"/>
      <point x="1340" y="103" type="curve"/>
      <point x="1343" y="120" type="line"/>
      <point x="1501" y="180"/>
      <point x="1611" y="315"/>
      <point x="1611" y="473" type="curve" smooth="yes"/>
      <point x="1611" y="484" type="line" smooth="yes"/>
      <point x="1611" y="722"/>
      <point x="1426" y="846"/>
      <point x="1054" y="846" type="curve" smooth="yes"/>
      <point x="567" y="846" type="line"/>
      <point x="567" y="1082" type="line"/>
      <point x="183" y="1082" type="line"/>
      <point x="183" y="606" type="line"/>
      <point x="977" y="606" type="line" smooth="yes"/>
      <point x="1143" y="606"/>
      <point x="1223" y="556"/>
      <point x="1223" y="458" type="curve" smooth="yes"/>
      <point x="1223" y="453" type="line" smooth="yes"/>
      <point x="1223" y="381"/>
      <point x="1177" y="350"/>
      <point x="1117" y="335" type="curve"/>
      <point x="1138" y="317" type="line"/>
      <point x="1074" y="242"/>
      <point x="960" y="198"/>
      <point x="734" y="198" type="curve" smooth="yes"/>
      <point x="558" y="198"/>
      <point x="524" y="228"/>
      <point x="524" y="260" type="curve" smooth="yes"/>
      <point x="524" y="262" type="line" smooth="yes"/>
      <point x="524" y="294"/>
      <point x="562" y="325"/>
      <point x="708" y="325" type="curve" smooth="yes"/>
      <point x="873" y="325"/>
      <point x="1051" y="283"/>
      <point x="1154" y="173" type="curve"/>
      <point x="1307" y="290" type="line"/>
      <point x="1187" y="464"/>
      <point x="932" y="538"/>
      <point x="635" y="538" type="curve" smooth="yes"/>
      <point x="214" y="538"/>
      <point x="129" y="400"/>
      <point x="129" y="255" type="curve" smooth="yes"/>
      <point x="129" y="250" type="line" smooth="yes"/>
      <point x="129" y="61"/>
      <point x="315" y="-47"/>
    </contour>
    <contour>
      <point x="1272" y="-137" type="line"/>
      <point x="1681" y="-137" type="line"/>
      <point x="1358" y="316" type="line"/>
      <point x="1125" y="141" type="line"/>
    </contour>
    <component base="_cap.shiro_left"/>
    <component base="_cap.shiro_right" xOffset="1411"/>
  </outline>
</glyph>
<glyph name="Ca.gm" format="2">
  <advance width="1740"/>
  <unicode hex="0A1A"/>
  <anchor x="1620" y="100" name="bottom"/>
  <anchor x="1830" y="100" name="bottom1"/>
  <anchor x="1817" y="1200" name="top"/>
  <outline>
    <contour>
      <point x="936" y="-46" type="curve" smooth="yes"/>
      <point x="1393" y="-46"/>
      <point x="1616" y="130"/>
      <point x="1616" y="466" type="curve" smooth="yes"/>
      <point x="1616" y="1120" type="line"/>
      <point x="1232" y="1120" type="line"/>
      <point x="1232" y="634" type="line"/>
      <point x="1244" y="622" type="line"/>
      <point x="1244" y="465" type="line" smooth="yes"/>
      <point x="1244" y="328"/>
      <point x="1138" y="259"/>
      <point x="933" y="259" type="curve" smooth="yes"/>
      <point x="656" y="259"/>
      <point x="492" y="406"/>
      <point x="492" y="657" type="curve" smooth="yes"/>
      <point x="492" y="871" type="line"/>
      <point x="108" y="821" type="line"/>
      <point x="108" y="658" type="line" smooth="yes"/>
      <point x="108" y="215"/>
      <point x="416" y="-46"/>
    </contour>
    <contour>
      <point x="321" y="482" type="line"/>
      <point x="1438" y="482" type="line"/>
      <point x="1438" y="763" type="line"/>
      <point x="321" y="753" type="line"/>
    </contour>
    <contour>
      <point x="42" y="942" type="line"/>
      <point x="1680" y="942" type="line"/>
      <point x="1680" y="1221" type="line"/>
      <point x="42" y="1221" type="line"/>
    </contour>
    <component base="_cap.shiro_left"/>
    <component base="_cap.shiro_right" xOffset="1439"/>
  </outline>
</glyph>
<glyph name="Cha.gm" format="2">
  <advance width="1735"/>
  <unicode hex="0A1B"/>
  <anchor x="1600" y="100" name="bottom"/>
  <anchor x="1800" y="100" name="bottom1"/>
  <anchor x="1728" y="1200" name="top"/>
  <outline>
    <contour>
      <point x="879" y="-50" type="line"/>
      <point x="1114" y="-50" type="line"/>
      <point x="1517" y="-50"/>
      <point x="1646" y="46"/>
      <point x="1646" y="251" type="curve" smooth="yes"/>
      <point x="1646" y="253" type="line" smooth="yes"/>
      <point x="1646" y="480"/>
      <point x="1423" y="524"/>
      <point x="1232" y="524" type="curve" smooth="yes"/>
      <point x="596" y="524" type="line" smooth="yes"/>
      <point x="546" y="524"/>
      <point x="514" y="544"/>
      <point x="514" y="580" type="curve" smooth="yes"/>
      <point x="514" y="613"/>
      <point x="548" y="628"/>
      <point x="595" y="628" type="curve" smooth="yes"/>
      <point x="1527" y="628" type="line"/>
      <point x="1527" y="1093" type="line"/>
      <point x="1144" y="1093" type="line"/>
      <point x="1144" y="847" type="line"/>
      <point x="429" y="847" type="line"/>
      <point x="244" y="847"/>
      <point x="121" y="788"/>
      <point x="121" y="653" type="curve" smooth="yes"/>
      <point x="121" y="514"/>
      <point x="230" y="461"/>
      <point x="426" y="449" type="curve"/>
      <point x="426" y="439" type="line"/>
      <point x="695" y="302" type="line"/>
      <point x="1181" y="302" type="line" smooth="yes"/>
      <point x="1248" y="302"/>
      <point x="1283" y="283"/>
      <point x="1283" y="247" type="curve" smooth="yes"/>
      <point x="1283" y="246" type="line" smooth="yes"/>
      <point x="1283" y="209"/>
      <point x="1248" y="189"/>
      <point x="1181" y="189" type="curve" smooth="yes"/>
      <point x="879" y="189" type="line"/>
    </contour>
    <contour>
      <point x="719" y="-50" type="curve"/>
      <point x="892" y="-50" type="line"/>
      <point x="892" y="189" type="line"/>
      <point x="579" y="189" type="line" smooth="yes"/>
      <point x="512" y="189"/>
      <point x="477" y="209"/>
      <point x="477" y="246" type="curve" smooth="yes"/>
      <point x="477" y="247" type="line" smooth="yes"/>
      <point x="477" y="283"/>
      <point x="512" y="302"/>
      <point x="579" y="302" type="curve" smooth="yes"/>
      <point x="842" y="302" type="line"/>
      <point x="842" y="439" type="line"/>
      <point x="411" y="439" type="line" smooth="yes"/>
      <point x="243" y="439"/>
      <point x="103" y="367"/>
      <point x="103" y="215" type="curve" smooth="yes"/>
      <point x="103" y="214" type="line" smooth="yes"/>
      <point x="103" y="29"/>
      <point x="251" y="-50"/>
    </contour>
    <contour>
      <point x="751" y="64" type="line"/>
      <point x="1013" y="64" type="line"/>
      <point x="1013" y="436" type="line"/>
      <point x="751" y="436" type="line"/>
    </contour>
    <contour>
      <point x="123" y="942" type="line"/>
      <point x="1314" y="959" type="line"/>
      <point x="1321" y="942" type="line"/>
      <point x="1707" y="942" type="line"/>
      <point x="1707" y="1221" type="line"/>
      <point x="112" y="1221" type="line"/>
    </contour>
    <component base="_cap.shiro_left"/>
    <component base="_cap.shiro_right" xOffset="1434"/>
  </outline>
</glyph>
<glyph name="Ja.gm" format="2">
  <advance width="1657"/>
  <unicode hex="0A1C"/>
  <anchor x="1757" y="100" name="bottom"/>
  <anchor x="1759" y="100" name="bottom1"/>
  <anchor x="1722" y="1200" name="top"/>
  <outline>
    <contour>
      <point x="100" y="0" type="curve"/>
      <point x="498" y="0" type="line"/>
      <point x="526" y="135"/>
      <point x="544" y="314"/>
      <point x="544" y="482" type="curve" smooth="yes"/>
      <point x="544" y="614"/>
      <point x="535" y="754"/>
      <point x="518" y="860" type="curve"/>
      <point x="124" y="810" type="line"/>
      <point x="137" y="723"/>
      <point x="146" y="593"/>
      <point x="146" y="498" type="curve" smooth="yes"/>
      <point x="146" y="330"/>
      <point x="129" y="147"/>
    </contour>
    <contour>
      <point x="355" y="382" type="line"/>
      <point x="1341" y="382" type="line"/>
      <point x="1341" y="692" type="line"/>
      <point x="355" y="692" type="line"/>
    </contour>
    <contour>
      <point x="16" y="942" type="line"/>
      <point x="1266" y="942" type="line"/>
      <point x="1266" y="1221" type="line"/>
      <point x="16" y="1221" type="line"/>
    </contour>
    <component base="_danda" xOffset="964"/>
    <component base="_cap.shiro_left"/>
  </outline>
</glyph>
<glyph name="Jha.gm" format="2">
  <advance width="1659"/>
  <unicode hex="0A1D"/>
  <anchor x="1301" y="-50" name="bottom"/>
  <anchor x="1750" y="-30" name="bottom1"/>
  <anchor x="1760" y="1200" name="top"/>
  <outline>
    <contour>
      <point x="872" y="13" type="curve" smooth="yes"/>
      <point x="1336" y="13"/>
      <point x="1558" y="116"/>
      <point x="1558" y="368" type="curve" smooth="yes"/>
      <point x="1558" y="389" type="line" smooth="yes"/>
      <point x="1558" y="584"/>
      <point x="1421" y="697"/>
      <point x="1177" y="707" type="curve"/>
      <point x="1177" y="747" type="line"/>
      <point x="846" y="770" type="line"/>
      <point x="427" y="770" type="line"/>
      <point x="427" y="743" type="line"/>
      <point x="359" y="743"/>
      <point x="254" y="740"/>
      <point x="160" y="728" type="curve"/>
      <point x="130" y="449" type="line"/>
      <point x="463" y="468"/>
      <point x="551" y="473"/>
      <point x="831" y="473" type="curve" smooth="yes"/>
      <point x="1104" y="473"/>
      <point x="1164" y="452"/>
      <point x="1164" y="394" type="curve" smooth="yes"/>
      <point x="1164" y="392" type="line" smooth="yes"/>
      <point x="1164" y="329"/>
      <point x="1105" y="301"/>
      <point x="831" y="301" type="curve" smooth="yes"/>
      <point x="550" y="301"/>
      <point x="428" y="308"/>
      <point x="145" y="343" type="curve"/>
      <point x="169" y="78" type="line"/>
      <point x="456" y="37"/>
      <point x="626" y="13"/>
    </contour>
    <contour>
      <point x="600" y="-224" type="line"/>
      <point x="1145" y="-224" type="line"/>
      <point x="1050" y="-138"/>
      <point x="922" y="-56"/>
      <point x="776" y="11" type="curve"/>
      <point x="789" y="106" type="line"/>
      <point x="318" y="89" type="line"/>
    </contour>
    <contour>
      <point x="543" y="747" type="curve"/>
      <point x="840" y="770" type="line"/>
      <point x="669" y="770"/>
      <point x="580" y="835"/>
      <point x="580" y="960" type="curve" smooth="yes"/>
      <point x="580" y="1031" type="line"/>
      <point x="126" y="1031" type="line"/>
      <point x="126" y="977" type="line" smooth="yes"/>
      <point x="126" y="862"/>
      <point x="226" y="747"/>
    </contour>
    <contour>
      <point x="16" y="942" type="line"/>
      <point x="369" y="942" type="line"/>
      <point x="382" y="960" type="line"/>
      <point x="1329" y="960" type="line"/>
      <point x="1355" y="942" type="line"/>
      <point x="1629" y="942" type="line"/>
      <point x="1629" y="1221" type="line"/>
      <point x="16" y="1221" type="line"/>
    </contour>
    <contour>
      <point x="1559" y="983" type="curve" smooth="yes"/>
      <point x="1559" y="1031" type="line"/>
      <point x="1105" y="1031" type="line"/>
      <point x="1105" y="960" type="line" smooth="yes"/>
      <point x="1105" y="835"/>
      <point x="1015" y="770"/>
      <point x="842" y="770" type="curve"/>
      <point x="1162" y="717" type="line"/>
      <point x="1527" y="717"/>
      <point x="1559" y="895"/>
    </contour>
    <component base="_cap.shiro_left"/>
    <component base="_cap.shiro_right" xOffset="1358"/>
  </outline>
</glyph>
<glyph name="Nya.gm" format="2">
  <advance width="1710"/>
  <unicode hex="0A1E"/>
  <anchor x="1638" y="100" name="bottom"/>
  <anchor x="1870" y="80" name="bottom1"/>
  <anchor x="1762" y="1200" name="top"/>
  <outline>
    <contour>
      <point x="515" y="290" type="curve"/>
      <point x="1487" y="290" type="line"/>
      <point x="1487" y="512" type="line"/>
      <point x="579" y="512" type="line" smooth="yes"/>
      <point x="519" y="512"/>
      <point x="483" y="521"/>
      <point x="483" y="560" type="curve" smooth="yes"/>
      <point x="483" y="600"/>
      <point x="519" y="609"/>
      <point x="578" y="609" type="curve" smooth="yes"/>
      <point x="1561" y="609" type="line"/>
      <point x="1561" y="1100" type="line"/>
      <point x="1180" y="1100" type="line"/>
      <point x="1180" y="831" type="line"/>
      <point x="514" y="831" type="line" smooth="yes"/>
      <point x="247" y="831"/>
      <point x="83" y="747"/>
      <point x="83" y="560" type="curve" smooth="yes"/>
      <point x="83" y="374"/>
      <point x="248" y="290"/>
    </contour>
    <contour>
      <point x="1239" y="-62" type="curve" smooth="yes"/>
      <point x="1351" y="-62"/>
      <point x="1460" y="-48"/>
      <point x="1555" y="-20" type="curve"/>
      <point x="1578" y="228" type="line"/>
      <point x="1480" y="203"/>
      <point x="1379" y="190"/>
      <point x="1283" y="190" type="curve" smooth="yes"/>
      <point x="1039" y="190"/>
      <point x="901" y="252"/>
      <point x="878" y="372" type="curve"/>
      <point x="494" y="372" type="line"/>
      <point x="584" y="74"/>
      <point x="818" y="-62"/>
    </contour>
    <contour>
      <point x="438" y="691" type="curve"/>
      <point x="787" y="773" type="line"/>
      <point x="689" y="853"/>
      <point x="601" y="951"/>
      <point x="550" y="1123" type="curve"/>
      <point x="151" y="1133" type="line"/>
      <point x="186" y="965"/>
      <point x="293" y="813"/>
    </contour>
    <contour>
      <point x="42" y="942" type="line"/>
      <point x="430" y="942" type="line"/>
      <point x="456" y="960" type="line"/>
      <point x="1380" y="960" type="line"/>
      <point x="1399" y="942" type="line"/>
      <point x="1638" y="942" type="line"/>
      <point x="1638" y="1221" type="line"/>
      <point x="42" y="1221" type="line"/>
    </contour>
    <component base="_cap.shiro_left"/>
    <component base="_cap.shiro_right" xOffset="1409"/>
  </outline>
</glyph>
<glyph name="Tta.gm" format="2">
  <advance width="1591"/>
  <unicode hex="0A1F"/>
  <anchor x="1540" y="100" name="bottom"/>
  <anchor x="1750" y="100" name="bottom1"/>
  <anchor x="1631" y="1200" name="top"/>
  <outline>
    <contour>
      <point x="918" y="-40" type="curve" smooth="yes"/>
      <point x="1171" y="-40"/>
      <point x="1341" y="0"/>
      <point x="1446" y="46" type="curve"/>
      <point x="1468" y="350" type="line"/>
      <point x="1325" y="298"/>
      <point x="1161" y="267"/>
      <point x="956" y="267" type="curve" smooth="yes"/>
      <point x="680" y="267"/>
      <point x="520" y="326"/>
      <point x="499" y="417" type="curve"/>
      <point x="499" y="495" type="line"/>
      <point x="421" y="407" type="line"/>
      <point x="643" y="470"/>
      <point x="988" y="512"/>
      <point x="1430" y="530" type="curve"/>
      <point x="1430" y="1075" type="line"/>
      <point x="1040" y="1075" type="line"/>
      <point x="1040" y="724" type="line"/>
      <point x="1119" y="787" type="line"/>
      <point x="772" y="784"/>
      <point x="425" y="731"/>
      <point x="106" y="633" type="curve"/>
      <point x="106" y="531" type="line"/>
      <point x="106" y="210"/>
      <point x="358" y="-40"/>
    </contour>
    <contour>
      <point x="20" y="942" type="line"/>
      <point x="1478" y="942" type="line"/>
      <point x="1478" y="1221" type="line"/>
      <point x="20" y="1221" type="line"/>
    </contour>
    <component base="_cap.shiro_left"/>
    <component base="_cap.shiro_right" xOffset="1300"/>
  </outline>
</glyph>
<glyph name="Ttha.gm" format="2">
  <advance width="1690"/>
  <unicode hex="0A20"/>
  <anchor x="1500" y="100" name="bottom"/>
  <anchor x="1764" y="100" name="bottom1"/>
  <anchor x="1233" y="1200" name="top"/>
  <outline>
    <contour>
      <point x="845" y="-55" type="curve" smooth="yes"/>
      <point x="1342" y="-55"/>
      <point x="1587" y="111"/>
      <point x="1587" y="387" type="curve" smooth="yes"/>
      <point x="1587" y="398" type="line" smooth="yes"/>
      <point x="1587" y="650"/>
      <point x="1413" y="798"/>
      <point x="847" y="851" type="curve"/>
      <point x="306" y="806"/>
      <point x="103" y="650"/>
      <point x="103" y="398" type="curve" smooth="yes"/>
      <point x="103" y="386" type="line" smooth="yes"/>
      <point x="103" y="111"/>
      <point x="350" y="-55"/>
    </contour>
    <contour>
      <point x="847" y="252" type="curve" smooth="yes"/>
      <point x="633" y="252"/>
      <point x="498" y="307"/>
      <point x="498" y="398" type="curve" smooth="yes"/>
      <point x="498" y="407" type="line" smooth="yes"/>
      <point x="498" y="502"/>
      <point x="631" y="548"/>
      <point x="847" y="571" type="curve"/>
      <point x="1090" y="548"/>
      <point x="1196" y="502"/>
      <point x="1196" y="407" type="curve" smooth="yes"/>
      <point x="1196" y="401" type="line" smooth="yes"/>
      <point x="1196" y="308"/>
      <point x="1070" y="252"/>
    </contour>
    <contour>
      <point x="657" y="701" type="line"/>
      <point x="1043" y="701" type="line"/>
      <point x="1043" y="1108" type="line"/>
      <point x="657" y="1108" type="line"/>
    </contour>
    <contour>
      <point x="30" y="942" type="line"/>
      <point x="1613" y="942" type="line"/>
      <point x="1613" y="1221" type="line"/>
      <point x="30" y="1221" type="line"/>
    </contour>
    <component base="_cap.shiro_left"/>
    <component base="_cap.shiro_right" xOffset="1389"/>
  </outline>
</glyph>
<glyph name="Dda.gm" format="2">
  <advance width="1636"/>
  <unicode hex="0A21"/>
  <anchor x="1520" y="100" name="bottom"/>
  <anchor x="1720" y="100" name="bottom1"/>
  <anchor x="1705" y="1200" name="top"/>
  <outline>
    <contour>
      <point x="722" y="-50" type="curve" smooth="yes"/>
      <point x="1243" y="-50"/>
      <point x="1538" y="105"/>
      <point x="1538" y="369" type="curve" smooth="yes"/>
      <point x="1538" y="387" type="line" smooth="yes"/>
      <point x="1538" y="561"/>
      <point x="1424" y="708"/>
      <point x="1136" y="708" type="curve"/>
      <point x="1241" y="647" type="line"/>
      <point x="1241" y="711" type="line"/>
      <point x="1375" y="718"/>
      <point x="1504" y="811"/>
      <point x="1504" y="981" type="curve" smooth="yes"/>
      <point x="1504" y="1091" type="line"/>
      <point x="1105" y="1091" type="line"/>
      <point x="1105" y="979" type="line" smooth="yes"/>
      <point x="1105" y="886"/>
      <point x="1055" y="844"/>
      <point x="945" y="844" type="curve"/>
      <point x="239" y="844" type="line"/>
      <point x="239" y="590" type="line"/>
      <point x="939" y="590" type="line"/>
      <point x="1079" y="586"/>
      <point x="1152" y="524"/>
      <point x="1152" y="409" type="curve"/>
      <point x="1152" y="406" type="line"/>
      <point x="1152" y="265"/>
      <point x="1054" y="205"/>
      <point x="712" y="205" type="curve" smooth="yes"/>
      <point x="514" y="205"/>
      <point x="481" y="226"/>
      <point x="481" y="249" type="curve" smooth="yes"/>
      <point x="481" y="251" type="line" smooth="yes"/>
      <point x="481" y="281"/>
      <point x="520" y="297"/>
      <point x="712" y="297" type="curve" smooth="yes"/>
      <point x="842" y="297"/>
      <point x="965" y="285"/>
      <point x="1087" y="220" type="curve"/>
      <point x="1113" y="233" type="line"/>
      <point x="1084" y="391"/>
      <point x="963" y="500"/>
      <point x="586" y="500" type="curve" smooth="yes"/>
      <point x="199" y="500"/>
      <point x="89" y="415"/>
      <point x="89" y="254" type="curve" smooth="yes"/>
      <point x="89" y="242" type="line" smooth="yes"/>
      <point x="89" y="82"/>
      <point x="247" y="-50"/>
    </contour>
    <contour>
      <point x="123" y="942" type="line"/>
      <point x="1137" y="956" type="line"/>
      <point x="1149" y="942" type="line"/>
      <point x="1613" y="942" type="line"/>
      <point x="1613" y="1221" type="line"/>
      <point x="100" y="1221" type="line"/>
    </contour>
    <component base="_cap.shiro_left"/>
    <component base="_cap.shiro_right" xOffset="1335"/>
  </outline>
</glyph>
<glyph name="Ddha.gm" format="2">
  <advance width="1688"/>
  <unicode hex="0A22"/>
  <anchor x="1589" y="100" name="bottom"/>
  <anchor x="1859" y="100" name="bottom1"/>
  <anchor x="1729" y="1200" name="top"/>
  <outline>
    <contour>
      <point x="1020" y="-66" type="curve" smooth="yes"/>
      <point x="1438" y="-66"/>
      <point x="1613" y="52"/>
      <point x="1613" y="232" type="curve" smooth="yes"/>
      <point x="1613" y="239" type="line" smooth="yes"/>
      <point x="1613" y="397"/>
      <point x="1497" y="495"/>
      <point x="1138" y="495" type="curve" smooth="yes"/>
      <point x="809" y="495"/>
      <point x="667" y="397"/>
      <point x="646" y="169" type="curve"/>
      <point x="668" y="169" type="line"/>
      <point x="701" y="266"/>
      <point x="857" y="295"/>
      <point x="1012" y="295" type="curve" smooth="yes"/>
      <point x="1163" y="295"/>
      <point x="1213" y="281"/>
      <point x="1213" y="248" type="curve" smooth="yes"/>
      <point x="1213" y="247" type="line" smooth="yes"/>
      <point x="1213" y="222"/>
      <point x="1163" y="203"/>
      <point x="1012" y="203" type="curve" smooth="yes"/>
      <point x="682" y="203"/>
      <point x="500" y="337"/>
      <point x="500" y="648" type="curve"/>
      <point x="500" y="901" type="line"/>
      <point x="108" y="851" type="line"/>
      <point x="108" y="646" type="line" smooth="yes"/>
      <point x="108" y="181"/>
      <point x="494" y="-66"/>
    </contour>
    <contour>
      <point x="319" y="565" type="line"/>
      <point x="1528" y="565" type="line"/>
      <point x="1528" y="1102" type="line"/>
      <point x="1136" y="1102" type="line"/>
      <point x="1136" y="802" type="line"/>
      <point x="319" y="802" type="line"/>
    </contour>
    <contour>
      <point x="72" y="942" type="line"/>
      <point x="1615" y="942" type="line"/>
      <point x="1615" y="1221" type="line"/>
      <point x="72" y="1221" type="line"/>
    </contour>
    <component base="_cap.shiro_left"/>
    <component base="_cap.shiro_right" xOffset="1387"/>
  </outline>
</glyph>
<glyph name="Nna.gm" format="2">
  <advance width="1642"/>
  <unicode hex="0A23"/>
  <anchor x="1580" y="100" name="bottom"/>
  <anchor x="1813" y="100" name="bottom1"/>
  <anchor x="1700" y="1200" name="top"/>
  <outline>
    <contour>
      <point x="946" y="-56" type="curve" smooth="yes"/>
      <point x="1187" y="-56"/>
      <point x="1374" y="-22"/>
      <point x="1497" y="13" type="curve"/>
      <point x="1519" y="303" type="line"/>
      <point x="1378" y="267"/>
      <point x="1203" y="234"/>
      <point x="977" y="234" type="curve" smooth="yes"/>
      <point x="600" y="234"/>
      <point x="446" y="298"/>
      <point x="446" y="403" type="curve" smooth="yes"/>
      <point x="446" y="429" type="line"/>
      <point x="311" y="311" type="line"/>
      <point x="558" y="336"/>
      <point x="856" y="353"/>
      <point x="1114" y="358" type="curve"/>
      <point x="1114" y="713" type="line"/>
      <point x="769" y="713" type="line"/>
      <point x="769" y="559" type="line"/>
      <point x="521" y="548"/>
      <point x="267" y="524"/>
      <point x="87" y="494" type="curve"/>
      <point x="87" y="447" type="line" smooth="yes"/>
      <point x="87" y="139"/>
      <point x="350" y="-56"/>
    </contour>
    <contour>
      <point x="1377" y="547" type="curve" smooth="yes"/>
      <point x="1498" y="547" type="line"/>
      <point x="1498" y="815" type="line"/>
      <point x="1380" y="815" type="line" smooth="yes"/>
      <point x="897" y="815"/>
      <point x="726" y="883"/>
      <point x="726" y="1076" type="curve"/>
      <point x="726" y="1120" type="line"/>
      <point x="263" y="1120" type="line"/>
      <point x="263" y="1096" type="line"/>
      <point x="263" y="796"/>
      <point x="496" y="547"/>
    </contour>
    <contour>
      <point x="25" y="942" type="line"/>
      <point x="1570" y="942" type="line"/>
      <point x="1584" y="1221" type="line"/>
      <point x="25" y="1221" type="line"/>
    </contour>
    <component base="_cap.shiro_left"/>
    <component base="_cap.shiro_right" xOffset="1341"/>
  </outline>
</glyph>
<glyph name="Ta.gm" format="2">
  <advance width="1549"/>
  <unicode hex="0A24"/>
  <anchor x="1360" y="100" name="bottom"/>
  <anchor x="1672" y="100" name="bottom1"/>
  <anchor x="1623" y="1200" name="top"/>
  <outline>
    <contour>
      <point x="71" y="942" type="line"/>
      <point x="1486" y="942" type="line"/>
      <point x="1486" y="1221" type="line"/>
      <point x="71" y="1221" type="line"/>
    </contour>
    <contour>
      <point x="686" y="-18" type="curve" smooth="yes"/>
      <point x="1220" y="-18"/>
      <point x="1465" y="93"/>
      <point x="1465" y="336" type="curve" smooth="yes"/>
      <point x="1465" y="347" type="line" smooth="yes"/>
      <point x="1465" y="516"/>
      <point x="1316" y="621"/>
      <point x="1082" y="629" type="curve"/>
      <point x="1121" y="586" type="line"/>
      <point x="1121" y="637" type="line"/>
      <point x="1327" y="655"/>
      <point x="1422" y="759"/>
      <point x="1422" y="956" type="curve" smooth="yes"/>
      <point x="1422" y="1086" type="line"/>
      <point x="1013" y="1086" type="line"/>
      <point x="1013" y="967" type="line" smooth="yes"/>
      <point x="1013" y="843"/>
      <point x="961" y="779"/>
      <point x="834" y="769" type="curve"/>
      <point x="199" y="769" type="line"/>
      <point x="199" y="483" type="line"/>
      <point x="838" y="483" type="line"/>
      <point x="997" y="483"/>
      <point x="1066" y="453"/>
      <point x="1066" y="398" type="curve" smooth="yes"/>
      <point x="1066" y="396" type="line" smooth="yes"/>
      <point x="1066" y="325"/>
      <point x="947" y="292"/>
      <point x="688" y="292" type="curve" smooth="yes"/>
      <point x="458" y="292"/>
      <point x="221" y="335"/>
      <point x="83" y="376" type="curve"/>
      <point x="106" y="69" type="line"/>
      <point x="237" y="25"/>
      <point x="441" y="-18"/>
    </contour>
    <component base="_cap.shiro_left"/>
    <component base="_cap.shiro_right" xOffset="1248"/>
  </outline>
</glyph>
<glyph name="Tha.gm" format="2">
  <advance width="1751"/>
  <unicode hex="0A25"/>
  <anchor x="1851" y="100" name="bottom"/>
  <anchor x="1770" y="100" name="bottom1"/>
  <anchor x="1816" y="1200" name="top"/>
  <outline>
    <contour>
      <point x="388" y="578" type="line"/>
      <point x="1406" y="578" type="line"/>
      <point x="1406" y="821" type="line"/>
      <point x="370" y="821" type="line"/>
    </contour>
    <contour>
      <point x="337" y="942" type="line"/>
      <point x="393" y="942" type="line"/>
      <point x="409" y="960" type="line"/>
      <point x="1410" y="960" type="line"/>
      <point x="1434" y="942" type="line"/>
      <point x="1525" y="942" type="line"/>
      <point x="1525" y="1221" type="line"/>
      <point x="337" y="1221" type="line"/>
    </contour>
    <contour>
      <point x="814" y="109" type="curve" smooth="yes"/>
      <point x="957" y="109"/>
      <point x="1081" y="134"/>
      <point x="1145" y="152" type="curve"/>
      <point x="1218" y="380" type="line"/>
      <point x="1241" y="380" type="line"/>
      <point x="1234" y="485" type="line"/>
      <point x="1165" y="448"/>
      <point x="1028" y="419"/>
      <point x="887" y="419" type="curve" smooth="yes"/>
      <point x="720" y="419"/>
      <point x="594" y="445"/>
      <point x="502" y="509" type="curve"/>
      <point x="522" y="472" type="line"/>
      <point x="561" y="590"/>
      <point x="587" y="738"/>
      <point x="587" y="924" type="curve" smooth="yes"/>
      <point x="581" y="1013"/>
      <point x="576" y="1112"/>
      <point x="570" y="1221" type="curve"/>
      <point x="38" y="1221" type="line"/>
      <point x="38" y="942" type="line"/>
      <point x="183" y="942" type="line"/>
      <point x="187" y="907"/>
      <point x="188" y="872"/>
      <point x="188" y="836" type="curve" smooth="yes"/>
      <point x="188" y="667"/>
      <point x="149" y="495"/>
      <point x="86" y="366" type="curve"/>
      <point x="248" y="215"/>
      <point x="476" y="109"/>
    </contour>
    <component base="_danda" xOffset="1058"/>
    <component base="_cap.shiro_left"/>
  </outline>
</glyph>
<glyph name="Da.gm" format="2">
  <advance width="1627"/>
  <unicode hex="0A26"/>
  <anchor x="1582" y="100" name="bottom"/>
  <anchor x="1802" y="100" name="bottom1"/>
  <anchor x="1695" y="1200" name="top"/>
  <outline>
    <contour>
      <point x="1002" y="-46" type="curve" smooth="yes"/>
      <point x="1208" y="-46"/>
      <point x="1383" y="-19"/>
      <point x="1514" y="31" type="curve"/>
      <point x="1536" y="336" type="line"/>
      <point x="1382" y="284"/>
      <point x="1202" y="257"/>
      <point x="1009" y="257" type="curve" smooth="yes"/>
      <point x="673" y="257"/>
      <point x="500" y="374"/>
      <point x="500" y="607" type="curve"/>
      <point x="500" y="626" type="line"/>
      <point x="500" y="639" type="line"/>
      <point x="500" y="851" type="line"/>
      <point x="108" y="801" type="line"/>
      <point x="108" y="608" type="line" smooth="yes"/>
      <point x="108" y="179"/>
      <point x="417" y="-46"/>
    </contour>
    <contour>
      <point x="322" y="433" type="line"/>
      <point x="1494" y="433" type="line"/>
      <point x="1494" y="1100" type="line"/>
      <point x="1109" y="1100" type="line"/>
      <point x="1109" y="728" type="line"/>
      <point x="322" y="728" type="line"/>
    </contour>
    <contour>
      <point x="13" y="942" type="line"/>
      <point x="1551" y="942" type="line"/>
      <point x="1551" y="1221" type="line"/>
      <point x="13" y="1221" type="line"/>
    </contour>
    <component base="_cap.shiro_left"/>
    <component base="_cap.shiro_right" xOffset="1326"/>
  </outline>
</glyph>
<glyph name="Dha.gm" format="2">
  <advance width="1653"/>
  <unicode hex="0A27"/>
  <anchor x="1753" y="100" name="bottom"/>
  <anchor x="1770" y="100" name="bottom1"/>
  <anchor x="1718" y="1200" name="top"/>
  <outline>
    <contour>
      <point x="428" y="942" type="line"/>
      <point x="1314" y="942" type="line"/>
      <point x="1314" y="1221" type="line"/>
      <point x="413" y="1221" type="line"/>
    </contour>
    <contour>
      <point x="774" y="119" type="curve" smooth="yes"/>
      <point x="866" y="119"/>
      <point x="986" y="140"/>
      <point x="1046" y="157" type="curve"/>
      <point x="1120" y="390" type="line"/>
      <point x="1142" y="390" type="line"/>
      <point x="1135" y="495" type="line"/>
      <point x="1076" y="458"/>
      <point x="958" y="429"/>
      <point x="838" y="429" type="curve" smooth="yes"/>
      <point x="689" y="429"/>
      <point x="582" y="455"/>
      <point x="502" y="519" type="curve"/>
      <point x="516" y="472" type="line"/>
      <point x="555" y="590"/>
      <point x="581" y="738"/>
      <point x="581" y="924" type="curve" smooth="yes"/>
      <point x="581" y="1013"/>
      <point x="576" y="1112"/>
      <point x="564" y="1221" type="curve"/>
      <point x="38" y="1221" type="line"/>
      <point x="38" y="942" type="line"/>
      <point x="177" y="942" type="line"/>
      <point x="181" y="907"/>
      <point x="182" y="872"/>
      <point x="182" y="836" type="curve" smooth="yes"/>
      <point x="182" y="671"/>
      <point x="143" y="502"/>
      <point x="80" y="376" type="curve"/>
      <point x="231" y="226"/>
      <point x="448" y="119"/>
    </contour>
    <component base="_danda" xOffset="960"/>
    <component base="_cap.shiro_left"/>
  </outline>
</glyph>
<glyph name="Na.gm" format="2">
  <advance width="1700"/>
  <unicode hex="0A28"/>
  <anchor x="1714" y="50" name="bottom"/>
  <anchor x="1774" y="100" name="bottom1"/>
  <anchor x="1240" y="1200" name="top"/>
  <outline>
    <contour>
      <point x="210" y="0" type="curve"/>
      <point x="614" y="0" type="line"/>
      <point x="614" y="22" type="line"/>
      <point x="546" y="110"/>
      <point x="511" y="195"/>
      <point x="511" y="272" type="curve" smooth="yes"/>
      <point x="511" y="273" type="line" smooth="yes"/>
      <point x="511" y="398"/>
      <point x="618" y="501"/>
      <point x="853" y="552" type="curve"/>
      <point x="1083" y="491"/>
      <point x="1189" y="398"/>
      <point x="1189" y="273" type="curve" smooth="yes"/>
      <point x="1189" y="272" type="line" smooth="yes"/>
      <point x="1189" y="192"/>
      <point x="1153" y="106"/>
      <point x="1084" y="22" type="curve"/>
      <point x="1084" y="0" type="line"/>
      <point x="1488" y="0" type="line"/>
      <point x="1557" y="86"/>
      <point x="1593" y="191"/>
      <point x="1593" y="305" type="curve" smooth="yes"/>
      <point x="1593" y="321" type="line" smooth="yes"/>
      <point x="1593" y="584"/>
      <point x="1384" y="761"/>
      <point x="851" y="844" type="curve"/>
      <point x="317" y="761"/>
      <point x="107" y="584"/>
      <point x="107" y="321" type="curve" smooth="yes"/>
      <point x="107" y="305" type="line" smooth="yes"/>
      <point x="107" y="189"/>
      <point x="142" y="84"/>
    </contour>
    <contour>
      <point x="666" y="648" type="line"/>
      <point x="1050" y="648" type="line"/>
      <point x="1050" y="1072" type="line"/>
      <point x="666" y="1072" type="line"/>
    </contour>
    <contour>
      <point x="64" y="942" type="line"/>
      <point x="1638" y="942" type="line"/>
      <point x="1638" y="1221" type="line"/>
      <point x="64" y="1221" type="line"/>
    </contour>
    <component base="_cap.shiro_left"/>
    <component base="_cap.shiro_right" xOffset="1399"/>
  </outline>
</glyph>
<glyph name="Pa.gm" format="2">
  <advance width="1633"/>
  <unicode hex="0A2A"/>
  <anchor x="1733" y="100" name="bottom"/>
  <anchor x="1740" y="100" name="bottom1"/>
  <anchor x="1680" y="1200" name="top"/>
  <outline>
    <contour>
      <point x="774" y="139" type="curve" smooth="yes"/>
      <point x="869" y="139"/>
      <point x="972" y="159"/>
      <point x="1024" y="174" type="curve"/>
      <point x="1100" y="410" type="line"/>
      <point x="1122" y="410" type="line"/>
      <point x="1115" y="515" type="line"/>
      <point x="1056" y="478"/>
      <point x="950" y="449"/>
      <point x="838" y="449" type="curve" smooth="yes"/>
      <point x="689" y="449"/>
      <point x="582" y="475"/>
      <point x="502" y="539" type="curve"/>
      <point x="516" y="472" type="line"/>
      <point x="555" y="590"/>
      <point x="581" y="738"/>
      <point x="581" y="924" type="curve" smooth="yes"/>
      <point x="581" y="1013"/>
      <point x="576" y="1112"/>
      <point x="564" y="1221" type="curve"/>
      <point x="38" y="1221" type="line"/>
      <point x="38" y="942" type="line"/>
      <point x="177" y="942" type="line"/>
      <point x="181" y="907"/>
      <point x="182" y="872"/>
      <point x="182" y="836" type="curve" smooth="yes"/>
      <point x="182" y="678"/>
      <point x="143" y="517"/>
      <point x="80" y="396" type="curve"/>
      <point x="231" y="246"/>
      <point x="448" y="139"/>
    </contour>
    <component base="_danda" xOffset="940"/>
    <component base="_cap.shiro_left"/>
  </outline>
</glyph>
<glyph name="Pha.gm" format="2">
  <advance width="1680"/>
  <unicode hex="0A2B"/>
  <anchor x="1600" y="100" name="bottom"/>
  <anchor x="1818" y="100" name="bottom1"/>
  <anchor x="1699" y="1200" name="top"/>
  <outline>
    <contour>
      <point x="949" y="-55" type="curve" smooth="yes"/>
      <point x="1394" y="-55"/>
      <point x="1586" y="71"/>
      <point x="1586" y="259" type="curve" smooth="yes"/>
      <point x="1586" y="266" type="line" smooth="yes"/>
      <point x="1586" y="426"/>
      <point x="1443" y="521"/>
      <point x="1083" y="521" type="curve" smooth="yes"/>
      <point x="743" y="521"/>
      <point x="634" y="415"/>
      <point x="601" y="244" type="curve"/>
      <point x="647" y="221" type="line"/>
      <point x="714" y="271"/>
      <point x="827" y="316"/>
      <point x="993" y="316" type="curve" smooth="yes"/>
      <point x="1136" y="316"/>
      <point x="1185" y="301"/>
      <point x="1185" y="265" type="curve" smooth="yes"/>
      <point x="1185" y="262" type="line" smooth="yes"/>
      <point x="1185" y="237"/>
      <point x="1142" y="218"/>
      <point x="953" y="218" type="curve" smooth="yes"/>
      <point x="729" y="218"/>
      <point x="502" y="286"/>
      <point x="502" y="450" type="curve"/>
      <point x="502" y="452" type="line"/>
      <point x="502" y="549"/>
      <point x="576" y="606"/>
      <point x="701" y="606" type="curve"/>
      <point x="1498" y="606" type="line"/>
      <point x="1498" y="1102" type="line"/>
      <point x="1113" y="1102" type="line"/>
      <point x="1113" y="846" type="line"/>
      <point x="608" y="846" type="line" smooth="yes"/>
      <point x="294" y="846"/>
      <point x="108" y="702"/>
      <point x="108" y="457" type="curve"/>
      <point x="108" y="449" type="line"/>
      <point x="108" y="147"/>
      <point x="444" y="-55"/>
    </contour>
    <contour>
      <point x="62" y="942" type="line"/>
      <point x="1175" y="956" type="line"/>
      <point x="1190" y="942" type="line"/>
      <point x="1645" y="942" type="line"/>
      <point x="1645" y="1221" type="line"/>
      <point x="62" y="1221" type="line"/>
    </contour>
    <component base="_cap.shiro_left"/>
    <component base="_cap.shiro_right" xOffset="1379"/>
  </outline>
</glyph>
<glyph name="Ba.gm" format="2">
  <advance width="1814"/>
  <unicode hex="0A2C"/>
  <anchor x="1914" y="100" name="bottom"/>
  <anchor x="1900" y="100" name="bottom1"/>
  <anchor x="1879" y="1200" name="top"/>
  <outline>
    <contour>
      <point x="861" y="58" type="curve" smooth="yes"/>
      <point x="1018" y="58"/>
      <point x="1142" y="90"/>
      <point x="1219" y="124" type="curve"/>
      <point x="1281" y="315" type="line"/>
      <point x="1318" y="315" type="line"/>
      <point x="1294" y="422" type="line"/>
      <point x="1226" y="395"/>
      <point x="1101" y="361"/>
      <point x="945" y="361" type="curve" smooth="yes"/>
      <point x="639" y="361"/>
      <point x="512" y="420"/>
      <point x="512" y="537" type="curve"/>
      <point x="509" y="544" type="line"/>
      <point x="440" y="420" type="line"/>
      <point x="724" y="493"/>
      <point x="1116" y="551"/>
      <point x="1420" y="570" type="curve"/>
      <point x="1420" y="829" type="line"/>
      <point x="1129" y="793"/>
      <point x="834" y="771"/>
      <point x="634" y="732" type="curve"/>
      <point x="634" y="716" type="line"/>
      <point x="453" y="701"/>
      <point x="271" y="664"/>
      <point x="115" y="626" type="curve"/>
      <point x="115" y="599" type="line"/>
      <point x="115" y="263"/>
      <point x="403" y="58"/>
    </contour>
    <contour>
      <point x="841" y="723" type="curve"/>
      <point x="1050" y="755" type="line"/>
      <point x="696" y="755"/>
      <point x="637" y="867"/>
      <point x="637" y="984" type="curve" smooth="yes"/>
      <point x="637" y="1098" type="line"/>
      <point x="149" y="1098" type="line"/>
      <point x="149" y="1008" type="line" smooth="yes"/>
      <point x="149" y="787"/>
      <point x="312" y="723"/>
    </contour>
    <contour>
      <point x="71" y="942" type="line"/>
      <point x="404" y="942" type="line"/>
      <point x="438" y="960" type="line"/>
      <point x="1439" y="960" type="line"/>
      <point x="1487" y="942" type="line"/>
      <point x="1521" y="942" type="line"/>
      <point x="1507" y="1221" type="line"/>
      <point x="58" y="1221" type="line"/>
    </contour>
    <component base="_danda" xOffset="1121"/>
    <component base="_cap.shiro_left"/>
  </outline>
</glyph>
<glyph name="Bha.gm" format="2">
  <advance width="1621"/>
  <unicode hex="0A2D"/>
  <anchor x="1440" y="100" name="bottom"/>
  <anchor x="1690" y="100" name="bottom1"/>
  <anchor x="1739" y="1200" name="top"/>
  <outline>
    <contour>
      <point x="718" y="-40" type="curve" smooth="yes"/>
      <point x="1256" y="-40"/>
      <point x="1536" y="90"/>
      <point x="1536" y="340" type="curve" smooth="yes"/>
      <point x="1536" y="349" type="line"/>
      <point x="1536" y="500"/>
      <point x="1391" y="618"/>
      <point x="1201" y="636" type="curve"/>
      <point x="1185" y="681" type="line"/>
      <point x="1066" y="797"/>
      <point x="856" y="866"/>
      <point x="596" y="866" type="curve" smooth="yes"/>
      <point x="323" y="866"/>
      <point x="145" y="787"/>
      <point x="145" y="616" type="curve"/>
      <point x="145" y="615" type="line"/>
      <point x="145" y="441"/>
      <point x="331" y="360"/>
      <point x="598" y="360" type="curve" smooth="yes"/>
      <point x="895" y="360"/>
      <point x="1080" y="429"/>
      <point x="1195" y="527" type="curve"/>
      <point x="1311" y="527" type="line"/>
      <point x="1311" y="623" type="line"/>
      <point x="1457" y="692"/>
      <point x="1538" y="816"/>
      <point x="1538" y="972" type="curve"/>
      <point x="1538" y="1082" type="line"/>
      <point x="1125" y="1082" type="line"/>
      <point x="1125" y="988" type="line"/>
      <point x="1125" y="838"/>
      <point x="1061" y="767"/>
      <point x="1004" y="726" type="curve"/>
      <point x="1002" y="689" type="line"/>
      <point x="915" y="600"/>
      <point x="820" y="575"/>
      <point x="680" y="575" type="curve" smooth="yes"/>
      <point x="578" y="575"/>
      <point x="531" y="587"/>
      <point x="531" y="613" type="curve" smooth="yes"/>
      <point x="531" y="614" type="line" smooth="yes"/>
      <point x="531" y="639"/>
      <point x="578" y="651"/>
      <point x="680" y="651" type="curve" smooth="yes"/>
      <point x="820" y="651"/>
      <point x="892" y="628"/>
      <point x="1002" y="557" type="curve"/>
      <point x="1007" y="532" type="line"/>
      <point x="1071" y="514"/>
      <point x="1128" y="473"/>
      <point x="1128" y="416" type="curve"/>
      <point x="1128" y="415" type="line" smooth="yes"/>
      <point x="1128" y="302"/>
      <point x="984" y="243"/>
      <point x="707" y="243" type="curve" smooth="yes"/>
      <point x="475" y="243"/>
      <point x="268" y="279"/>
      <point x="110" y="342" type="curve"/>
      <point x="131" y="42" type="line"/>
      <point x="282" y="-7"/>
      <point x="484" y="-40"/>
    </contour>
    <contour>
      <point x="111" y="942" type="line"/>
      <point x="1614" y="942" type="line"/>
      <point x="1614" y="1221" type="line"/>
      <point x="111" y="1221" type="line"/>
    </contour>
    <component base="_cap.shiro_left"/>
    <component base="_cap.shiro_right" xOffset="1320"/>
  </outline>
</glyph>
<glyph name="Ma.gm" format="2">
  <advance width="1583"/>
  <unicode hex="0A2E"/>
  <anchor x="1683" y="100" name="bottom"/>
  <anchor x="1710" y="100" name="bottom1"/>
  <anchor x="1648" y="1200" name="top"/>
  <outline>
    <contour>
      <point x="109" y="65" type="curve"/>
      <point x="511" y="65" type="line"/>
      <point x="544" y="216"/>
      <point x="563" y="382"/>
      <point x="563" y="557" type="curve" smooth="yes"/>
      <point x="563" y="775"/>
      <point x="546" y="1004"/>
      <point x="502" y="1221" type="curve"/>
      <point x="29" y="1221" type="line"/>
      <point x="29" y="941" type="line"/>
      <point x="148" y="941" type="line"/>
      <point x="162" y="830"/>
      <point x="170" y="715"/>
      <point x="170" y="600" type="curve" smooth="yes"/>
      <point x="170" y="418"/>
      <point x="151" y="236"/>
    </contour>
    <contour>
      <point x="344" y="319" type="line"/>
      <point x="1252" y="319" type="line"/>
      <point x="1252" y="641" type="line"/>
      <point x="344" y="641" type="line"/>
    </contour>
    <component base="_danda" xOffset="890"/>
    <component base="_cap.shiro_left"/>
  </outline>
</glyph>
<glyph name="Ya.gm" format="2">
  <advance width="2022"/>
  <unicode hex="0A2F"/>
  <anchor x="2122" y="100" name="bottom"/>
  <anchor x="1929" y="100" name="bottom1"/>
  <anchor x="2087" y="1200" name="top"/>
  <outline>
    <contour>
      <point x="766" y="69" type="curve" smooth="yes"/>
      <point x="920" y="69"/>
      <point x="1068" y="91"/>
      <point x="1197" y="133" type="curve"/>
      <point x="1197" y="463" type="line"/>
      <point x="1699" y="463" type="line"/>
      <point x="1699" y="762" type="line"/>
      <point x="824" y="762" type="line"/>
      <point x="824" y="274" type="line"/>
      <point x="944" y="394" type="line"/>
      <point x="875" y="378"/>
      <point x="808" y="365"/>
      <point x="746" y="365" type="curve" smooth="yes"/>
      <point x="645" y="365"/>
      <point x="564" y="389"/>
      <point x="507" y="435" type="curve"/>
      <point x="553" y="545"/>
      <point x="578" y="685"/>
      <point x="578" y="849" type="curve" smooth="yes"/>
      <point x="578" y="902"/>
      <point x="575" y="958"/>
      <point x="570" y="1016" type="curve"/>
      <point x="177" y="1016" type="line"/>
      <point x="183" y="953"/>
      <point x="186" y="892"/>
      <point x="186" y="835" type="curve" smooth="yes"/>
      <point x="186" y="631"/>
      <point x="150" y="462"/>
      <point x="80" y="336" type="curve"/>
      <point x="223" y="161"/>
      <point x="458" y="69"/>
    </contour>
    <contour>
      <point x="31" y="942" type="line"/>
      <point x="1618" y="942" type="line"/>
      <point x="1618" y="1221" type="line"/>
      <point x="31" y="1221" type="line"/>
    </contour>
    <component base="_danda" xOffset="1329"/>
    <component base="_cap.shiro_left"/>
  </outline>
</glyph>
<glyph name="Ra.gm" format="2">
  <advance width="1711"/>
  <unicode hex="0A30"/>
  <anchor x="1599" y="100" name="bottom"/>
  <anchor x="1795" y="100" name="bottom1"/>
  <anchor x="1778" y="1200" name="top"/>
  <outline>
    <contour>
      <point x="894" y="-46" type="curve" smooth="yes"/>
      <point x="1345" y="-46"/>
      <point x="1577" y="125"/>
      <point x="1577" y="452" type="curve" smooth="yes"/>
      <point x="1577" y="970" type="line"/>
      <point x="1194" y="970" type="line"/>
      <point x="1194" y="638" type="line"/>
      <point x="1194" y="614" type="line"/>
      <point x="1194" y="456" type="line"/>
      <point x="1194" y="335"/>
      <point x="1109" y="261"/>
      <point x="897" y="261" type="curve" smooth="yes"/>
      <point x="649" y="261"/>
      <point x="507" y="327"/>
      <point x="507" y="421" type="curve" smooth="yes"/>
      <point x="507" y="423" type="line" smooth="yes"/>
      <point x="507" y="474"/>
      <point x="543" y="496"/>
      <point x="623" y="496" type="curve" smooth="yes"/>
      <point x="1392" y="496" type="line"/>
      <point x="1392" y="787" type="line"/>
      <point x="552" y="787" type="line" smooth="yes"/>
      <point x="257" y="787"/>
      <point x="103" y="667"/>
      <point x="103" y="438" type="curve" smooth="yes"/>
      <point x="103" y="425" type="line" smooth="yes"/>
      <point x="103" y="179"/>
      <point x="372" y="-46"/>
    </contour>
    <contour>
      <point x="46" y="942" type="line"/>
      <point x="1655" y="942" type="line"/>
      <point x="1655" y="1221" type="line"/>
      <point x="46" y="1221" type="line"/>
    </contour>
    <component base="_cap.shiro_left"/>
    <component base="_cap.shiro_right" xOffset="1410"/>
  </outline>
</glyph>
<glyph name="La.gm" format="2">
  <advance width="1907"/>
  <unicode hex="0A32"/>
  <anchor x="1926" y="100" name="bottom"/>
  <anchor x="1881" y="100" name="bottom1"/>
  <anchor x="1874" y="1200" name="top"/>
  <outline>
    <contour>
      <point x="954" y="277" type="curve"/>
      <point x="1255" y="398"/>
      <point x="1601" y="729"/>
      <point x="1664" y="1085" type="curve" smooth="yes"/>
      <point x="1672" y="1130" type="line"/>
      <point x="1277" y="1130" type="line"/>
      <point x="1256" y="1055" type="line" smooth="yes"/>
      <point x="1197" y="844"/>
      <point x="1080" y="710"/>
      <point x="954" y="615" type="curve"/>
      <point x="830" y="707"/>
      <point x="712" y="842"/>
      <point x="652" y="1055" type="curve" smooth="yes"/>
      <point x="631" y="1130" type="line"/>
      <point x="235" y="1130" type="line"/>
      <point x="243" y="1085" type="line" smooth="yes"/>
      <point x="307" y="726"/>
      <point x="620" y="398"/>
    </contour>
    <contour>
      <point x="216" y="0" type="curve"/>
      <point x="614" y="0" type="line"/>
      <point x="614" y="23" type="line"/>
      <point x="538" y="109"/>
      <point x="498" y="198"/>
      <point x="498" y="286" type="curve" smooth="yes"/>
      <point x="498" y="288" type="line" smooth="yes"/>
      <point x="498" y="396"/>
      <point x="557" y="468"/>
      <point x="651" y="497" type="curve"/>
      <point x="526" y="793" type="line"/>
      <point x="245" y="732"/>
      <point x="99" y="575"/>
      <point x="99" y="339" type="curve" smooth="yes"/>
      <point x="99" y="330" type="line" smooth="yes"/>
      <point x="99" y="205"/>
      <point x="139" y="92"/>
    </contour>
    <contour>
      <point x="1688" y="0" type="line"/>
      <point x="1767" y="74"/>
      <point x="1808" y="183"/>
      <point x="1808" y="320" type="curve" smooth="yes"/>
      <point x="1808" y="329" type="line" smooth="yes"/>
      <point x="1808" y="575"/>
      <point x="1663" y="732"/>
      <point x="1382" y="793" type="curve"/>
      <point x="1257" y="497" type="line"/>
      <point x="1358" y="468"/>
      <point x="1410" y="396"/>
      <point x="1410" y="288" type="curve" smooth="yes"/>
      <point x="1410" y="286" type="line" smooth="yes"/>
      <point x="1410" y="186"/>
      <point x="1369" y="96"/>
      <point x="1290" y="23" type="curve"/>
      <point x="1290" y="0" type="line"/>
    </contour>
    <contour>
      <point x="21" y="942" type="line"/>
      <point x="1857" y="942" type="line"/>
      <point x="1857" y="1221" type="line"/>
      <point x="21" y="1221" type="line"/>
    </contour>
    <component base="_cap.shiro_left"/>
    <component base="_cap.shiro_right" xOffset="1606"/>
  </outline>
</glyph>
<glyph name="Va.gm" format="2">
  <advance width="1682"/>
  <unicode hex="0A35"/>
  <anchor x="1600" y="100" name="bottom"/>
  <anchor x="1820" y="80" name="bottom1"/>
  <anchor x="1742" y="1200" name="top"/>
  <outline>
    <contour>
      <point x="495" y="297" type="curve"/>
      <point x="1467" y="297" type="line"/>
      <point x="1467" y="517" type="line"/>
      <point x="559" y="517" type="line" smooth="yes"/>
      <point x="499" y="517"/>
      <point x="463" y="530"/>
      <point x="463" y="569" type="curve" smooth="yes"/>
      <point x="463" y="608"/>
      <point x="499" y="621"/>
      <point x="558" y="621" type="curve" smooth="yes"/>
      <point x="1541" y="621" type="line"/>
      <point x="1541" y="1100" type="line"/>
      <point x="1160" y="1100" type="line"/>
      <point x="1160" y="841" type="line"/>
      <point x="494" y="841" type="line" smooth="yes"/>
      <point x="227" y="841"/>
      <point x="63" y="756"/>
      <point x="63" y="569" type="curve" smooth="yes"/>
      <point x="63" y="382"/>
      <point x="228" y="297"/>
    </contour>
    <contour>
      <point x="1219" y="-62" type="curve" smooth="yes"/>
      <point x="1360" y="-62"/>
      <point x="1435" y="-49"/>
      <point x="1535" y="-20" type="curve"/>
      <point x="1558" y="228" type="line"/>
      <point x="1460" y="203"/>
      <point x="1362" y="190"/>
      <point x="1263" y="190" type="curve" smooth="yes"/>
      <point x="1019" y="190"/>
      <point x="881" y="252"/>
      <point x="858" y="372" type="curve"/>
      <point x="474" y="372" type="line"/>
      <point x="564" y="74"/>
      <point x="798" y="-62"/>
    </contour>
    <contour>
      <point x="116" y="942" type="line"/>
      <point x="1213" y="959" type="line"/>
      <point x="1249" y="942" type="line"/>
      <point x="1619" y="942" type="line"/>
      <point x="1619" y="1221" type="line"/>
      <point x="116" y="1221" type="line"/>
    </contour>
    <component base="_cap.shiro_left"/>
    <component base="_cap.shiro_right" xOffset="1381"/>
  </outline>
</glyph>
<glyph name="Sha.gm" format="2">
  <advance width="1603"/>
  <unicode hex="0A36"/>
  <anchor x="1703" y="100" name="bottom"/>
  <anchor x="1720" y="100" name="bottom1"/>
  <anchor x="1668" y="1200" name="top"/>
  <outline>
    <contour>
      <point x="109" y="64" type="curve"/>
      <point x="511" y="64" type="line"/>
      <point x="544" y="216"/>
      <point x="563" y="382"/>
      <point x="563" y="557" type="curve" smooth="yes"/>
      <point x="563" y="778"/>
      <point x="543" y="1010"/>
      <point x="502" y="1221" type="curve"/>
      <point x="-1" y="1221" type="line"/>
      <point x="-1" y="941" type="line"/>
      <point x="148" y="941" type="line"/>
      <point x="165" y="811"/>
      <point x="170" y="715"/>
      <point x="170" y="600" type="curve" smooth="yes"/>
      <point x="170" y="418"/>
      <point x="151" y="236"/>
    </contour>
    <contour>
      <point x="433" y="319" type="line"/>
      <point x="1281" y="319" type="line"/>
      <point x="1281" y="641" type="line"/>
      <point x="433" y="641" type="line"/>
    </contour>
    <contour>
      <point x="1084" y="0" type="line"/>
      <point x="1468" y="0" type="line"/>
      <point x="1468" y="942" type="line"/>
      <point x="1566" y="942" type="line"/>
      <point x="1566" y="1221" type="line"/>
      <point x="1084" y="1221" type="line"/>
      <point x="1084" y="503" type="line"/>
      <point x="1084" y="474" type="line"/>
    </contour>
    <contour>
      <point x="413" y="942" type="line"/>
      <point x="1276" y="942" type="line"/>
      <point x="1265" y="1221" type="line"/>
      <point x="413" y="1221" type="line"/>
    </contour>
    <contour>
      <point x="815" y="-87" type="curve" smooth="yes"/>
      <point x="932" y="-87"/>
      <point x="991" y="-25"/>
      <point x="991" y="75" type="curve" smooth="yes"/>
      <point x="991" y="79" type="line" smooth="yes"/>
      <point x="991" y="177"/>
      <point x="932" y="241"/>
      <point x="815" y="241" type="curve" smooth="yes"/>
      <point x="698" y="241"/>
      <point x="638" y="176"/>
      <point x="638" y="79" type="curve" smooth="yes"/>
      <point x="638" y="75" type="line" smooth="yes"/>
      <point x="638" y="-24"/>
      <point x="698" y="-87"/>
    </contour>
    <component base="_cap.shiro_right" xOffset="1302"/>
    <component base="_cap.shiro_left"/>
  </outline>
</glyph>
<glyph name="Sa.gm" format="2">
  <advance width="1602"/>
  <unicode hex="0A38"/>
  <anchor x="1702" y="100" name="bottom"/>
  <anchor x="1730" y="100" name="bottom1"/>
  <anchor x="1667" y="1200" name="top"/>
  <outline>
    <contour>
      <point x="109" y="65" type="curve"/>
      <point x="511" y="65" type="line"/>
      <point x="544" y="216"/>
      <point x="563" y="382"/>
      <point x="563" y="557" type="curve" smooth="yes"/>
      <point x="563" y="775"/>
      <point x="546" y="1004"/>
      <point x="502" y="1221" type="curve"/>
      <point x="29" y="1221" type="line"/>
      <point x="29" y="942" type="line"/>
      <point x="148" y="942" type="line"/>
      <point x="162" y="831"/>
      <point x="170" y="715"/>
      <point x="170" y="600" type="curve" smooth="yes"/>
      <point x="170" y="418"/>
      <point x="151" y="236"/>
    </contour>
    <contour>
      <point x="364" y="319" type="line"/>
      <point x="1262" y="319" type="line"/>
      <point x="1262" y="641" type="line"/>
      <point x="364" y="641" type="line"/>
    </contour>
    <contour>
      <point x="312" y="942" type="line"/>
      <point x="1312" y="942" type="line"/>
      <point x="1312" y="1221" type="line"/>
      <point x="312" y="1221" type="line"/>
    </contour>
    <component base="_cap.shiro_left"/>
    <component base="_danda" xOffset="909"/>
  </outline>
</glyph>
<glyph name="Ha.gm" format="2">
  <advance width="1691"/>
  <unicode hex="0A39"/>
  <anchor x="1610" y="100" name="bottom"/>
  <anchor x="1800" y="100" name="bottom1"/>
  <anchor x="1758" y="1200" name="top"/>
  <outline>
    <contour>
      <point x="889" y="-46" type="curve" smooth="yes"/>
      <point x="1329" y="-46"/>
      <point x="1557" y="125"/>
      <point x="1557" y="452" type="curve" smooth="yes"/>
      <point x="1557" y="1070" type="line"/>
      <point x="1173" y="1070" type="line"/>
      <point x="1173" y="456" type="line" smooth="yes"/>
      <point x="1173" y="334"/>
      <point x="1092" y="261"/>
      <point x="887" y="261" type="curve" smooth="yes"/>
      <point x="632" y="261"/>
      <point x="497" y="331"/>
      <point x="497" y="425" type="curve" smooth="yes"/>
      <point x="497" y="427" type="line" smooth="yes"/>
      <point x="497" y="476"/>
      <point x="534" y="498"/>
      <point x="613" y="498" type="curve" smooth="yes"/>
      <point x="901" y="498" type="line"/>
      <point x="965" y="789" type="line"/>
      <point x="543" y="789" type="line" smooth="yes"/>
      <point x="235" y="789"/>
      <point x="93" y="675"/>
      <point x="93" y="438" type="curve" smooth="yes"/>
      <point x="93" y="425" type="line" smooth="yes"/>
      <point x="93" y="173"/>
      <point x="361" y="-46"/>
    </contour>
    <contour>
      <point x="36" y="942" type="line"/>
      <point x="1635" y="942" type="line"/>
      <point x="1635" y="1221" type="line"/>
      <point x="36" y="1221" type="line"/>
    </contour>
    <component base="_cap.shiro_left"/>
    <component base="_cap.shiro_right" xOffset="1390"/>
  </outline>
</glyph>
<glyph name="Nukta.gm" format="2">
  <unicode hex="0A3C"/>
  <outline>
    <contour>
      <point x="-271" y="-320" type="curve" smooth="yes"/>
      <point x="-149" y="-320"/>
      <point x="-87" y="-255"/>
      <point x="-87" y="-151" type="curve" smooth="yes"/>
      <point x="-87" y="-147" type="line" smooth="yes"/>
      <point x="-87" y="-45"/>
      <point x="-149" y="22"/>
      <point x="-271" y="22" type="curve" smooth="yes"/>
      <point x="-393" y="22"/>
      <point x="-455" y="-46"/>
      <point x="-455" y="-147" type="curve" smooth="yes"/>
      <point x="-455" y="-151" type="line" smooth="yes"/>
      <point x="-455" y="-254"/>
      <point x="-393" y="-320"/>
    </contour>
  </outline>
</glyph>
<glyph name="MatraU.gm" format="2">
  <unicode hex="0A41"/>
  <anchor x="800" y="100" name="_bottom1"/>
  <outline>
    <contour>
      <point x="-125" y="-477" type="curve"/>
      <point x="91" y="-477"/>
      <point x="283" y="-450"/>
      <point x="435" y="-397" type="curve"/>
      <point x="459" y="-114" type="line"/>
      <point x="293" y="-165"/>
      <point x="101" y="-192"/>
      <point x="-100" y="-192" type="curve"/>
      <point x="-298" y="-192"/>
      <point x="-499" y="-165"/>
      <point x="-686" y="-112" type="curve"/>
      <point x="-662" y="-397" type="line"/>
      <point x="-505" y="-450"/>
      <point x="-321" y="-477"/>
    </contour>
  </outline>
</glyph>
<glyph name="MatraUu.gm" format="2">
  <unicode hex="0A42"/>
  <anchor x="800" y="100" name="_bottom1"/>
  <outline>
    <contour>
      <point x="-113" y="-359" type="curve" smooth="yes"/>
      <point x="107" y="-359"/>
      <point x="296" y="-332"/>
      <point x="438" y="-279" type="curve"/>
      <point x="457" y="-46" type="line"/>
      <point x="312" y="-99"/>
      <point x="121" y="-126"/>
      <point x="-102" y="-126" type="curve" smooth="yes"/>
      <point x="-323" y="-126"/>
      <point x="-524" y="-98"/>
      <point x="-688" y="-44" type="curve"/>
      <point x="-669" y="-279" type="line"/>
      <point x="-518" y="-332"/>
      <point x="-328" y="-359"/>
    </contour>
    <contour>
      <point x="-117" y="-666" type="curve" smooth="yes"/>
      <point x="103" y="-666"/>
      <point x="292" y="-639"/>
      <point x="434" y="-586" type="curve"/>
      <point x="453" y="-353" type="line"/>
      <point x="308" y="-406"/>
      <point x="117" y="-433"/>
      <point x="-106" y="-433" type="curve" smooth="yes"/>
      <point x="-327" y="-433"/>
      <point x="-528" y="-405"/>
      <point x="-692" y="-351" type="curve"/>
      <point x="-673" y="-586" type="line"/>
      <point x="-522" y="-639"/>
      <point x="-332" y="-666"/>
    </contour>
  </outline>
</glyph>
<glyph name="MatraAi.gm" format="2">
  <unicode hex="0A48"/>
  <anchor x="588" y="1200" name="_top"/>
  <anchor x="999" y="1401" name="top1"/>
  <outline>
    <contour>
      <point x="231" y="1188" type="line"/>
      <point x="373" y="1188" type="line"/>
      <point x="357" y="1374" type="line" smooth="yes"/>
      <point x="324" y="1752"/>
      <point x="158" y="1949"/>
      <point x="-386" y="1949" type="curve" smooth="yes"/>
      <point x="-462" y="1949"/>
      <point x="-538" y="1949"/>
      <point x="-672" y="1931" type="curve"/>
      <point x="-694" y="1671" type="line"/>
      <point x="-590" y="1687"/>
      <point x="-447" y="1696"/>
      <point x="-357" y="1696" type="curve" smooth="yes"/>
      <point x="31" y="1696"/>
      <point x="174" y="1575"/>
      <point x="218" y="1414" type="curve"/>
      <point x="202" y="1409" type="line"/>
    </contour>
    <contour>
      <point x="182" y="1188" type="line"/>
      <point x="260" y="1188" type="line"/>
      <point x="256" y="1244" type="line" smooth="yes"/>
      <point x="239" y="1479"/>
      <point x="72" y="1600"/>
      <point x="-322" y="1600" type="curve" smooth="yes"/>
      <point x="-387" y="1600"/>
      <point x="-478" y="1595"/>
      <point x="-547" y="1585" type="curve"/>
      <point x="-570" y="1334" type="line"/>
      <point x="-450" y="1350"/>
      <point x="-357" y="1358"/>
      <point x="-260" y="1358" type="curve" smooth="yes"/>
      <point x="29" y="1358"/>
      <point x="156" y="1307"/>
      <point x="176" y="1215" type="curve" smooth="yes"/>
    </contour>
  </outline>
</glyph>
<glyph name="MatraOo.gm" format="2">
  <unicode hex="0A4B"/>
  <anchor x="600" y="1200" name="_top"/>
  <anchor x="924" y="1401" name="top1"/>
  <outline>
    <contour>
      <point x="182" y="1218" type="curve"/>
      <point x="369" y="1218" type="line"/>
      <point x="374" y="1276"/>
      <point x="379" y="1332"/>
      <point x="379" y="1393" type="curve" smooth="yes"/>
      <point x="379" y="1652"/>
      <point x="217" y="1724"/>
      <point x="-92" y="1724" type="curve" smooth="yes"/>
      <point x="-218" y="1724" type="line" smooth="yes"/>
      <point x="-376" y="1724"/>
      <point x="-441" y="1773"/>
      <point x="-454" y="1887" type="curve"/>
      <point x="-641" y="1887" type="line"/>
      <point x="-641" y="1733" type="line" smooth="yes"/>
      <point x="-641" y="1535"/>
      <point x="-561" y="1394"/>
      <point x="-278" y="1394" type="curve" smooth="yes"/>
      <point x="-149" y="1394" type="line" smooth="yes"/>
      <point x="77" y="1394"/>
      <point x="162" y="1357"/>
    </contour>
  </outline>
</glyph>
<glyph name="MatraAu.gm" format="2">
  <unicode hex="0A4C"/>
  <anchor x="600" y="1200" name="_top"/>
  <anchor x="1194" y="1458" name="top1"/>
  <outline>
    <contour>
      <point x="-106" y="1318" type="curve"/>
      <point x="96" y="1318" type="line"/>
      <point x="91" y="1336"/>
      <point x="88" y="1351"/>
      <point x="88" y="1370" type="curve"/>
      <point x="88" y="1445"/>
      <point x="137" y="1485"/>
      <point x="221" y="1485" type="curve"/>
      <point x="303" y="1485"/>
      <point x="353" y="1445"/>
      <point x="353" y="1370" type="curve"/>
      <point x="353" y="1351"/>
      <point x="350" y="1336"/>
      <point x="345" y="1318" type="curve"/>
      <point x="547" y="1318" type="line"/>
      <point x="592" y="1360"/>
      <point x="616" y="1417"/>
      <point x="616" y="1496" type="curve"/>
      <point x="616" y="1654"/>
      <point x="477" y="1763"/>
      <point x="214" y="1763" type="curve"/>
      <point x="80" y="1763"/>
      <point x="-20" y="1721"/>
      <point x="-81" y="1666" type="curve"/>
      <point x="-52" y="1622" type="line"/>
      <point x="-136" y="1586"/>
      <point x="-175" y="1528"/>
      <point x="-175" y="1466" type="curve"/>
      <point x="-175" y="1410"/>
      <point x="-151" y="1359"/>
    </contour>
    <contour>
      <point x="-309" y="1484" type="curve"/>
      <point x="-233" y="1484"/>
      <point x="-190" y="1508"/>
      <point x="-156" y="1545" type="curve"/>
      <point x="-141" y="1535" type="line"/>
      <point x="214" y="1535" type="line"/>
      <point x="214" y="1763" type="line"/>
      <point x="-136" y="1763" type="line" smooth="yes"/>
      <point x="-251" y="1763"/>
      <point x="-325" y="1800"/>
      <point x="-348" y="1921" type="curve"/>
      <point x="-530" y="1921" type="line"/>
      <point x="-524" y="1741" type="line" smooth="yes"/>
      <point x="-519" y="1590"/>
      <point x="-458" y="1484"/>
    </contour>
  </outline>
</glyph>
<glyph name="Udaat.gm" format="2">
  <unicode hex="0A51"/>
  <anchor x="800" y="100" name="_bottom"/>
  <anchor x="600" y="260" name="bottom1"/>
  <outline>
    <contour>
      <point x="833" y="-621" type="curve"/>
      <point x="833" y="-374" type="line"/>
      <point x="639" y="-374"/>
      <point x="564" y="-301"/>
      <point x="564" y="-141" type="curve"/>
      <point x="180" y="-141" type="line"/>
      <point x="180" y="-447"/>
      <point x="392" y="-621"/>
    </contour>
  </outline>
</glyph>
<glyph name="Za.gm" format="2">
  <advance width="1668"/>
  <unicode hex="0A5B"/>
  <anchor x="1768" y="100" name="bottom"/>
  <anchor x="1760" y="100" name="bottom1"/>
  <anchor x="1733" y="1200" name="top"/>
  <outline>
    <contour>
      <point x="100" y="0" type="curve"/>
      <point x="498" y="0" type="line"/>
      <point x="526" y="132"/>
      <point x="544" y="307"/>
      <point x="544" y="472" type="curve" smooth="yes"/>
      <point x="544" y="604"/>
      <point x="535" y="744"/>
      <point x="518" y="850" type="curve"/>
      <point x="124" y="800" type="line"/>
      <point x="137" y="713"/>
      <point x="146" y="583"/>
      <point x="146" y="488" type="curve" smooth="yes"/>
      <point x="146" y="322"/>
      <point x="129" y="141"/>
    </contour>
    <contour>
      <point x="320" y="376" type="line"/>
      <point x="1323" y="376" type="line"/>
      <point x="1323" y="692" type="line"/>
      <point x="320" y="692" type="line"/>
    </contour>
    <contour>
      <point x="41" y="942" type="line"/>
      <point x="1463" y="942" type="line"/>
      <point x="1463" y="1221" type="line"/>
      <point x="41" y="1221" type="line"/>
    </contour>
    <contour>
      <point x="835" y="-67" type="curve" smooth="yes"/>
      <point x="952" y="-67"/>
      <point x="1011" y="-5"/>
      <point x="1011" y="95" type="curve" smooth="yes"/>
      <point x="1011" y="99" type="line" smooth="yes"/>
      <point x="1011" y="197"/>
      <point x="952" y="261"/>
      <point x="835" y="261" type="curve" smooth="yes"/>
      <point x="718" y="261"/>
      <point x="658" y="196"/>
      <point x="658" y="99" type="curve" smooth="yes"/>
      <point x="658" y="95" type="line" smooth="yes"/>
      <point x="658" y="-4"/>
      <point x="718" y="-67"/>
    </contour>
    <component base="_danda" xOffset="975"/>
    <component base="_cap.shiro_left"/>
  </outline>
</glyph>
<glyph name="Rra.gm" format="2">
  <advance width="1529"/>
  <unicode hex="0A5C"/>
  <anchor x="1360" y="0" name="bottom"/>
  <anchor x="1800" y="-40" name="bottom1"/>
  <anchor x="1603" y="1200" name="top"/>
  <outline>
    <contour>
      <point x="696" y="2" type="curve"/>
      <point x="1220" y="2"/>
      <point x="1445" y="144"/>
      <point x="1445" y="353" type="curve" smooth="yes"/>
      <point x="1445" y="364" type="line" smooth="yes"/>
      <point x="1445" y="535"/>
      <point x="1297" y="641"/>
      <point x="1062" y="649" type="curve"/>
      <point x="1101" y="606" type="line"/>
      <point x="1101" y="657" type="line"/>
      <point x="1297" y="676"/>
      <point x="1402" y="807"/>
      <point x="1402" y="956" type="curve" smooth="yes"/>
      <point x="1402" y="1087" type="line"/>
      <point x="993" y="1087" type="line"/>
      <point x="993" y="977" type="line" smooth="yes"/>
      <point x="993" y="852"/>
      <point x="923" y="780"/>
      <point x="804" y="780" type="curve" smooth="yes"/>
      <point x="179" y="780" type="line"/>
      <point x="179" y="498" type="line"/>
      <point x="808" y="498" type="line" smooth="yes"/>
      <point x="996" y="498"/>
      <point x="1046" y="458"/>
      <point x="1046" y="403" type="curve" smooth="yes"/>
      <point x="1046" y="401" type="line" smooth="yes"/>
      <point x="1046" y="324"/>
      <point x="961" y="285"/>
      <point x="648" y="285" type="curve" smooth="yes"/>
      <point x="441" y="285"/>
      <point x="197" y="328"/>
      <point x="73" y="369" type="curve"/>
      <point x="94" y="124" type="line"/>
      <point x="215" y="78"/>
      <point x="422" y="2"/>
    </contour>
    <contour>
      <point x="343" y="-189" type="line"/>
      <point x="793" y="-189" type="line"/>
      <point x="485" y="110" type="line"/>
      <point x="94" y="124" type="line"/>
    </contour>
    <contour>
      <point x="1142" y="-189" type="line"/>
      <point x="1592" y="-189" type="line"/>
      <point x="1246" y="143" type="line"/>
      <point x="818" y="143" type="line"/>
    </contour>
    <contour>
      <point x="11" y="942" type="line"/>
      <point x="1471" y="942" type="line"/>
      <point x="1456" y="1221" type="line"/>
      <point x="11" y="1221" type="line"/>
    </contour>
    <component base="_cap.shiro_left"/>
    <component base="_cap.shiro_right" xOffset="1228"/>
  </outline>
</glyph>
<glyph name="zero.gm" format="2">
  <advance width="1521"/>
  <unicode hex="0A66"/>
  <outline>
    <contour>
      <point x="759" y="85" type="curve" smooth="yes"/>
      <point x="1202" y="85"/>
      <point x="1451" y="286"/>
      <point x="1451" y="587" type="curve" smooth="yes"/>
      <point x="1451" y="605" type="line" smooth="yes"/>
      <point x="1451" y="909"/>
      <point x="1202" y="1088"/>
      <point x="759" y="1088" type="curve" smooth="yes"/>
      <point x="316" y="1088"/>
      <point x="69" y="909"/>
      <point x="69" y="605" type="curve" smooth="yes"/>
      <point x="69" y="587" type="line" smooth="yes"/>
      <point x="69" y="286"/>
      <point x="316" y="85"/>
    </contour>
    <contour>
      <point x="760" y="399" type="curve" smooth="yes"/>
      <point x="574" y="399"/>
      <point x="471" y="464"/>
      <point x="471" y="589" type="curve" smooth="yes"/>
      <point x="471" y="591" type="line" smooth="yes"/>
      <point x="471" y="714"/>
      <point x="574" y="774"/>
      <point x="760" y="774" type="curve" smooth="yes"/>
      <point x="946" y="774"/>
      <point x="1049" y="714"/>
      <point x="1049" y="589" type="curve" smooth="yes"/>
      <point x="1049" y="587" type="line" smooth="yes"/>
      <point x="1049" y="464"/>
      <point x="946" y="399"/>
    </contour>
  </outline>
</glyph>
<glyph name="one.gm" format="2">
  <advance width="1436"/>
  <unicode hex="0A67"/>
  <outline>
    <contour>
      <point x="952" y="0" type="line"/>
      <point x="1336" y="0" type="line"/>
      <point x="1336" y="770" type="line" smooth="yes"/>
      <point x="1336" y="1065"/>
      <point x="1101" y="1246"/>
      <point x="703" y="1246" type="curve" smooth="yes"/>
      <point x="305" y="1246"/>
      <point x="70" y="1087"/>
      <point x="70" y="819" type="curve" smooth="yes"/>
      <point x="70" y="813" type="line" smooth="yes"/>
      <point x="70" y="550"/>
      <point x="251" y="411"/>
      <point x="630" y="411" type="curve" smooth="yes"/>
      <point x="738" y="411"/>
      <point x="820" y="424"/>
      <point x="863" y="441" type="curve"/>
      <point x="942" y="717" type="line"/>
      <point x="962" y="717" type="line"/>
      <point x="962" y="780" type="line"/>
      <point x="946" y="764"/>
      <point x="859" y="713"/>
      <point x="702" y="713" type="curve" smooth="yes"/>
      <point x="551" y="713"/>
      <point x="472" y="751"/>
      <point x="472" y="827" type="curve" smooth="yes"/>
      <point x="472" y="828" type="line" smooth="yes"/>
      <point x="472" y="904"/>
      <point x="551" y="943"/>
      <point x="703" y="943" type="curve" smooth="yes"/>
      <point x="859" y="943"/>
      <point x="952" y="872"/>
      <point x="952" y="780" type="curve" smooth="yes"/>
    </contour>
  </outline>
</glyph>
<glyph name="two.gm" format="2">
  <advance width="1406"/>
  <unicode hex="0A68"/>
  <outline>
    <contour>
      <point x="607" y="325" type="curve" smooth="yes"/>
      <point x="1086" y="325"/>
      <point x="1336" y="476"/>
      <point x="1336" y="764" type="curve" smooth="yes"/>
      <point x="1336" y="777" type="line" smooth="yes"/>
      <point x="1336" y="1085"/>
      <point x="1086" y="1246"/>
      <point x="607" y="1246" type="curve" smooth="yes"/>
      <point x="436" y="1246"/>
      <point x="248" y="1210"/>
      <point x="100" y="1150" type="curve"/>
      <point x="100" y="838" type="line"/>
      <point x="263" y="897"/>
      <point x="451" y="932"/>
      <point x="607" y="932" type="curve" smooth="yes"/>
      <point x="823" y="932"/>
      <point x="934" y="879"/>
      <point x="934" y="778" type="curve"/>
      <point x="934" y="777" type="line" smooth="yes"/>
      <point x="934" y="680"/>
      <point x="802" y="629"/>
      <point x="547" y="629" type="curve" smooth="yes"/>
      <point x="427" y="629"/>
      <point x="288" y="637"/>
      <point x="104" y="659" type="curve"/>
      <point x="130" y="362" type="line"/>
      <point x="317" y="337"/>
      <point x="498" y="325"/>
    </contour>
    <contour>
      <point x="665" y="1" type="line"/>
      <point x="1260" y="1" type="line"/>
      <point x="1081" y="146"/>
      <point x="926" y="242"/>
      <point x="724" y="318" type="curve"/>
      <point x="724" y="481" type="line"/>
      <point x="255" y="367" type="line"/>
    </contour>
  </outline>
</glyph>
<glyph name="three.gm" format="2">
  <advance width="1446"/>
  <unicode hex="0A69"/>
  <outline>
    <contour>
      <point x="739" y="35" type="curve" smooth="yes"/>
      <point x="1187" y="35"/>
      <point x="1376" y="155"/>
      <point x="1376" y="344" type="curve" smooth="yes"/>
      <point x="1376" y="351" type="line" smooth="yes"/>
      <point x="1376" y="523"/>
      <point x="1252" y="647"/>
      <point x="867" y="647" type="curve"/>
      <point x="1019" y="593" type="line"/>
      <point x="1019" y="649" type="line"/>
      <point x="1254" y="659"/>
      <point x="1346" y="761"/>
      <point x="1346" y="915" type="curve" smooth="yes"/>
      <point x="1346" y="922" type="line" smooth="yes"/>
      <point x="1346" y="1105"/>
      <point x="1156" y="1246"/>
      <point x="678" y="1246" type="curve" smooth="yes"/>
      <point x="527" y="1246"/>
      <point x="273" y="1219"/>
      <point x="115" y="1171" type="curve"/>
      <point x="115" y="895" type="line"/>
      <point x="276" y="936"/>
      <point x="535" y="960"/>
      <point x="671" y="960" type="curve" smooth="yes"/>
      <point x="847" y="960"/>
      <point x="944" y="940"/>
      <point x="944" y="875" type="curve" smooth="yes"/>
      <point x="944" y="874" type="line" smooth="yes"/>
      <point x="944" y="812"/>
      <point x="892" y="779"/>
      <point x="752" y="779" type="curve" smooth="yes"/>
      <point x="207" y="779" type="line"/>
      <point x="207" y="509" type="line"/>
      <point x="752" y="509" type="line" smooth="yes"/>
      <point x="913" y="509"/>
      <point x="974" y="474"/>
      <point x="974" y="407" type="curve" smooth="yes"/>
      <point x="974" y="405" type="line" smooth="yes"/>
      <point x="974" y="351"/>
      <point x="913" y="318"/>
      <point x="693" y="318" type="curve" smooth="yes"/>
      <point x="495" y="318"/>
      <point x="219" y="340"/>
      <point x="80" y="374" type="curve"/>
      <point x="102" y="103" type="line"/>
      <point x="308" y="55"/>
      <point x="579" y="35"/>
    </contour>
    <contour>
      <point x="514" y="-204" type="line"/>
      <point x="1063" y="-204" type="line"/>
      <point x="966" y="-118"/>
      <point x="835" y="-36"/>
      <point x="686" y="31" type="curve"/>
      <point x="756" y="211" type="line"/>
      <point x="172" y="163" type="line"/>
    </contour>
  </outline>
</glyph>
<glyph name="four.gm" format="2">
  <advance width="1515"/>
  <unicode hex="0A6A"/>
  <outline>
    <contour>
      <point x="760" y="-36" type="curve" smooth="yes"/>
      <point x="1143" y="-36"/>
      <point x="1427" y="69"/>
      <point x="1427" y="336" type="curve" smooth="yes"/>
      <point x="1427" y="359" type="line" smooth="yes"/>
      <point x="1427" y="505"/>
      <point x="1305" y="630"/>
      <point x="1099" y="647" type="curve"/>
      <point x="1099" y="656" type="line"/>
      <point x="1321" y="697"/>
      <point x="1435" y="820"/>
      <point x="1435" y="999" type="curve" smooth="yes"/>
      <point x="1435" y="1081"/>
      <point x="1426" y="1140"/>
      <point x="1402" y="1221" type="curve"/>
      <point x="1003" y="1221" type="line"/>
      <point x="1023" y="1153"/>
      <point x="1033" y="1087"/>
      <point x="1033" y="1030" type="curve" smooth="yes"/>
      <point x="1033" y="905"/>
      <point x="931" y="831"/>
      <point x="757" y="831" type="curve" smooth="yes"/>
      <point x="583" y="831"/>
      <point x="482" y="905"/>
      <point x="482" y="1030" type="curve" smooth="yes"/>
      <point x="482" y="1087"/>
      <point x="492" y="1155"/>
      <point x="511" y="1221" type="curve"/>
      <point x="113" y="1221" type="line"/>
      <point x="89" y="1140"/>
      <point x="80" y="1066"/>
      <point x="80" y="999" type="curve" smooth="yes"/>
      <point x="80" y="818"/>
      <point x="204" y="696"/>
      <point x="414" y="656" type="curve"/>
      <point x="414" y="649" type="line"/>
      <point x="207" y="625"/>
      <point x="91" y="510"/>
      <point x="91" y="356" type="curve" smooth="yes"/>
      <point x="91" y="336" type="line" smooth="yes"/>
      <point x="91" y="69"/>
      <point x="387" y="-36"/>
    </contour>
    <contour>
      <point x="760" y="270" type="curve" smooth="yes"/>
      <point x="614" y="270"/>
      <point x="491" y="316"/>
      <point x="491" y="401" type="curve"/>
      <point x="491" y="403" type="line"/>
      <point x="491" y="478"/>
      <point x="554" y="545"/>
      <point x="753" y="545" type="curve" smooth="yes"/>
      <point x="967" y="545"/>
      <point x="1025" y="478"/>
      <point x="1025" y="403" type="curve"/>
      <point x="1025" y="399" type="line"/>
      <point x="1025" y="309"/>
      <point x="914" y="270"/>
    </contour>
  </outline>
</glyph>
<glyph name="five.gm" format="2">
  <advance width="1564"/>
  <unicode hex="0A6B"/>
  <outline>
    <contour>
      <point x="709" y="141" type="curve" smooth="yes"/>
      <point x="825" y="141"/>
      <point x="910" y="155"/>
      <point x="989" y="174" type="curve"/>
      <point x="1068" y="412" type="line"/>
      <point x="1088" y="412" type="line"/>
      <point x="1081" y="517" type="line"/>
      <point x="1017" y="476"/>
      <point x="911" y="451"/>
      <point x="797" y="451" type="curve" smooth="yes"/>
      <point x="684" y="451"/>
      <point x="591" y="474"/>
      <point x="517" y="522" type="curve"/>
      <point x="549" y="639"/>
      <point x="566" y="799"/>
      <point x="566" y="963" type="curve" smooth="yes"/>
      <point x="566" y="1050"/>
      <point x="559" y="1138"/>
      <point x="549" y="1221" type="curve"/>
      <point x="147" y="1221" type="line"/>
      <point x="158" y="1137"/>
      <point x="164" y="1052"/>
      <point x="164" y="968" type="curve" smooth="yes"/>
      <point x="164" y="765"/>
      <point x="144" y="597"/>
      <point x="70" y="408" type="curve"/>
      <point x="205" y="234"/>
      <point x="449" y="141"/>
    </contour>
    <contour>
      <point x="1080" y="0" type="line"/>
      <point x="1464" y="0" type="line"/>
      <point x="1464" y="1221" type="line"/>
      <point x="1080" y="1221" type="line"/>
    </contour>
  </outline>
</glyph>
<glyph name="six.gm" format="2">
  <advance width="1436"/>
  <unicode hex="0A6C"/>
  <outline>
    <contour>
      <point x="797" y="-34" type="curve" smooth="yes"/>
      <point x="954" y="-34"/>
      <point x="1162" y="-14"/>
      <point x="1334" y="34" type="curve"/>
      <point x="1356" y="315" type="line"/>
      <point x="1239" y="281"/>
      <point x="1000" y="259"/>
      <point x="833" y="259" type="curve" smooth="yes"/>
      <point x="551" y="259"/>
      <point x="472" y="299"/>
      <point x="472" y="364" type="curve" smooth="yes"/>
      <point x="472" y="366" type="line" smooth="yes"/>
      <point x="472" y="417"/>
      <point x="529" y="450"/>
      <point x="684" y="450" type="curve" smooth="yes"/>
      <point x="1229" y="450" type="line"/>
      <point x="1229" y="720" type="line"/>
      <point x="684" y="720" type="line" smooth="yes"/>
      <point x="544" y="720"/>
      <point x="492" y="750"/>
      <point x="492" y="805" type="curve" smooth="yes"/>
      <point x="492" y="806" type="line" smooth="yes"/>
      <point x="492" y="881"/>
      <point x="589" y="903"/>
      <point x="765" y="903" type="curve" smooth="yes"/>
      <point x="901" y="903"/>
      <point x="1160" y="879"/>
      <point x="1321" y="838" type="curve"/>
      <point x="1321" y="1112" type="line"/>
      <point x="1163" y="1160"/>
      <point x="987" y="1187"/>
      <point x="758" y="1187" type="curve" smooth="yes"/>
      <point x="280" y="1187"/>
      <point x="90" y="1046"/>
      <point x="90" y="863" type="curve" smooth="yes"/>
      <point x="90" y="856" type="line" smooth="yes"/>
      <point x="90" y="702"/>
      <point x="183" y="605"/>
      <point x="397" y="588" type="curve"/>
      <point x="397" y="534" type="line"/>
      <point x="569" y="588" type="line"/>
      <point x="192" y="588"/>
      <point x="70" y="477"/>
      <point x="70" y="322" type="curve" smooth="yes"/>
      <point x="70" y="315" type="line" smooth="yes"/>
      <point x="70" y="102"/>
      <point x="266" y="-34"/>
    </contour>
    <contour>
      <point x="1312" y="1303" type="curve"/>
      <point x="1291" y="1588" type="line"/>
      <point x="1221" y="1602"/>
      <point x="1141" y="1608"/>
      <point x="1065" y="1608" type="curve" smooth="yes"/>
      <point x="842" y="1608"/>
      <point x="700" y="1529"/>
      <point x="700" y="1382" type="curve" smooth="yes"/>
      <point x="700" y="1278"/>
      <point x="761" y="1221"/>
      <point x="867" y="1191" type="curve"/>
      <point x="867" y="1004" type="line"/>
      <point x="1158" y="1142" type="line"/>
      <point x="1089" y="1159"/>
      <point x="1051" y="1196"/>
      <point x="1051" y="1240" type="curve" smooth="yes"/>
      <point x="1051" y="1287"/>
      <point x="1090" y="1323"/>
      <point x="1167" y="1323" type="curve" smooth="yes"/>
      <point x="1215" y="1323"/>
      <point x="1264" y="1317"/>
    </contour>
  </outline>
</glyph>
<glyph name="seven.gm" format="2">
  <advance width="1485"/>
  <unicode hex="0A6D"/>
  <outline>
    <contour>
      <point x="156" y="0" type="line"/>
      <point x="427" y="0" type="line" smooth="yes"/>
      <point x="1151" y="0"/>
      <point x="1415" y="229"/>
      <point x="1415" y="686" type="curve" smooth="yes"/>
      <point x="1415" y="716" type="line" smooth="yes"/>
      <point x="1415" y="1013"/>
      <point x="1151" y="1244"/>
      <point x="756" y="1244" type="curve" smooth="yes"/>
      <point x="325" y="1244"/>
      <point x="100" y="1031"/>
      <point x="100" y="681" type="curve" smooth="yes"/>
      <point x="100" y="628" type="line"/>
      <point x="494" y="628" type="line"/>
      <point x="494" y="681" type="line" smooth="yes"/>
      <point x="494" y="831"/>
      <point x="576" y="930"/>
      <point x="756" y="930" type="curve" smooth="yes"/>
      <point x="925" y="930"/>
      <point x="1013" y="833"/>
      <point x="1013" y="706" type="curve" smooth="yes"/>
      <point x="1013" y="686" type="line" smooth="yes"/>
      <point x="1013" y="432"/>
      <point x="819" y="320"/>
      <point x="407" y="320" type="curve" smooth="yes"/>
      <point x="134" y="320" type="line"/>
    </contour>
  </outline>
</glyph>
<glyph name="eight.gm" format="2">
  <advance width="1470"/>
  <unicode hex="0A6E"/>
  <outline>
    <contour>
      <point x="874" y="-36" type="curve" smooth="yes"/>
      <point x="1096" y="-36"/>
      <point x="1263" y="4"/>
      <point x="1379" y="73" type="curve"/>
      <point x="1400" y="375" type="line"/>
      <point x="1256" y="311"/>
      <point x="1095" y="278"/>
      <point x="930" y="278" type="curve" smooth="yes"/>
      <point x="651" y="278"/>
      <point x="484" y="405"/>
      <point x="484" y="621" type="curve" smooth="yes"/>
      <point x="484" y="1218" type="line"/>
      <point x="100" y="1168" type="line"/>
      <point x="100" y="621" type="line" smooth="yes"/>
      <point x="100" y="208"/>
      <point x="388" y="-36"/>
    </contour>
    <contour>
      <point x="1381" y="683" type="line"/>
      <point x="1381" y="983" type="line"/>
      <point x="302" y="987" type="line"/>
      <point x="302" y="687" type="line"/>
    </contour>
  </outline>
</glyph>
<glyph name="nine.gm" format="2">
  <advance width="1470"/>
  <unicode hex="0A6F"/>
  <outline>
    <contour>
      <point x="874" y="-36" type="curve" smooth="yes"/>
      <point x="1096" y="-36"/>
      <point x="1263" y="4"/>
      <point x="1379" y="73" type="curve"/>
      <point x="1400" y="375" type="line"/>
      <point x="1256" y="311"/>
      <point x="1095" y="278"/>
      <point x="930" y="278" type="curve" smooth="yes"/>
      <point x="651" y="278"/>
      <point x="484" y="405"/>
      <point x="484" y="621" type="curve" smooth="yes"/>
      <point x="484" y="1218" type="line"/>
      <point x="100" y="1168" type="line"/>
      <point x="100" y="621" type="line" smooth="yes"/>
      <point x="100" y="208"/>
      <point x="388" y="-36"/>
    </contour>
    <contour>
      <point x="302" y="687" type="line"/>
      <point x="1381" y="683" type="line"/>
      <point x="1381" y="983" type="line"/>
      <point x="302" y="987" type="line"/>
    </contour>
    <contour>
      <point x="996" y="793" type="line"/>
      <point x="1287" y="959" type="line"/>
      <point x="1218" y="978"/>
      <point x="1180" y="1018"/>
      <point x="1180" y="1067" type="curve" smooth="yes"/>
      <point x="1180" y="1120"/>
      <point x="1222" y="1160"/>
      <point x="1306" y="1160" type="curve" smooth="yes"/>
      <point x="1351" y="1160"/>
      <point x="1396" y="1156"/>
      <point x="1441" y="1147" type="curve"/>
      <point x="1420" y="1425" type="line"/>
      <point x="1351" y="1439"/>
      <point x="1283" y="1445"/>
      <point x="1214" y="1445" type="curve" smooth="yes"/>
      <point x="963" y="1445"/>
      <point x="829" y="1355"/>
      <point x="829" y="1199" type="curve" smooth="yes"/>
      <point x="829" y="1092"/>
      <point x="892" y="1022"/>
      <point x="996" y="993" type="curve"/>
    </contour>
  </outline>
</glyph>
<glyph name="Tippi.gm" format="2">
  <unicode hex="0A70"/>
  <anchor x="600" y="1200" name="_top"/>
  <outline>
    <contour>
      <point x="-67" y="1343" type="curve"/>
      <point x="96" y="1343" type="line"/>
      <point x="88" y="1372"/>
      <point x="84" y="1396"/>
      <point x="84" y="1414" type="curve" smooth="yes"/>
      <point x="84" y="1489"/>
      <point x="131" y="1528"/>
      <point x="222" y="1528" type="curve" smooth="yes"/>
      <point x="313" y="1528"/>
      <point x="360" y="1489"/>
      <point x="360" y="1414" type="curve" smooth="yes"/>
      <point x="360" y="1395"/>
      <point x="356" y="1371"/>
      <point x="348" y="1343" type="curve"/>
      <point x="510" y="1343" type="line"/>
      <point x="555" y="1391"/>
      <point x="590" y="1464"/>
      <point x="590" y="1538" type="curve" smooth="yes"/>
      <point x="590" y="1704"/>
      <point x="451" y="1806"/>
      <point x="222" y="1806" type="curve" smooth="yes"/>
      <point x="0" y="1806"/>
      <point x="-146" y="1704"/>
      <point x="-146" y="1538" type="curve" smooth="yes"/>
      <point x="-146" y="1464"/>
      <point x="-111" y="1391"/>
    </contour>
  </outline>
</glyph>
<glyph name="Ura.gm" format="2">
  <advance width="1707"/>
  <unicode hex="0A73"/>
  <anchor x="2086" y="1401" name="top1"/>
  <outline>
    <contour>
      <point x="921" y="-37" type="curve" smooth="yes"/>
      <point x="1366" y="-37"/>
      <point x="1571" y="102"/>
      <point x="1571" y="331" type="curve" smooth="yes"/>
      <point x="1571" y="354" type="line" smooth="yes"/>
      <point x="1571" y="536"/>
      <point x="1437" y="623"/>
      <point x="1146" y="623" type="curve"/>
      <point x="1263" y="526" type="line"/>
      <point x="1263" y="628" type="line"/>
      <point x="1539" y="628"/>
      <point x="1630" y="775"/>
      <point x="1630" y="990" type="curve" smooth="yes"/>
      <point x="1630" y="1066" type="line"/>
      <point x="1248" y="1066" type="line"/>
      <point x="1248" y="979" type="line" smooth="yes"/>
      <point x="1248" y="864"/>
      <point x="1154" y="758"/>
      <point x="969" y="758" type="curve" smooth="yes"/>
      <point x="311" y="758" type="line"/>
      <point x="311" y="489" type="line"/>
      <point x="965" y="489" type="line" smooth="yes"/>
      <point x="1134" y="489"/>
      <point x="1173" y="437"/>
      <point x="1173" y="379" type="curve" smooth="yes"/>
      <point x="1173" y="378" type="line" smooth="yes"/>
      <point x="1173" y="311"/>
      <point x="1116" y="259"/>
      <point x="903" y="259" type="curve" smooth="yes"/>
      <point x="603" y="259"/>
      <point x="487" y="401"/>
      <point x="487" y="751" type="curve"/>
      <point x="487" y="1025" type="line"/>
      <point x="487" y="1297"/>
      <point x="631" y="1432"/>
      <point x="888" y="1432" type="curve" smooth="yes"/>
      <point x="1116" y="1432"/>
      <point x="1247" y="1345"/>
      <point x="1269" y="1202" type="curve" smooth="yes"/>
      <point x="1271" y="1189" type="line"/>
      <point x="1365" y="1220" type="line"/>
      <point x="1365" y="1232" type="line"/>
      <point x="1638" y="1301" type="line"/>
      <point x="1636" y="1312" type="line" smooth="yes"/>
      <point x="1595" y="1538"/>
      <point x="1356" y="1731"/>
      <point x="884" y="1731" type="curve" smooth="yes"/>
      <point x="396" y="1731"/>
      <point x="107" y="1465"/>
      <point x="107" y="1016" type="curve"/>
      <point x="107" y="753" type="line"/>
      <point x="107" y="234"/>
      <point x="365" y="-37"/>
    </contour>
    <contour>
      <point x="23" y="942" type="line"/>
      <point x="322" y="942" type="line"/>
      <point x="340" y="956" type="line"/>
      <point x="1459" y="956" type="line"/>
      <point x="1470" y="942" type="line"/>
      <point x="1693" y="942" type="line"/>
      <point x="1693" y="1221" type="line"/>
      <point x="23" y="1221" type="line"/>
    </contour>
    <component base="_cap.shiro_left"/>
    <component base="_cap.shiro_right" xOffset="1406"/>
  </outline>
</glyph>
<glyph name="EkOnkar.gm" format="2">
  <advance width="3138"/>
  <unicode hex="0A74"/>
  <outline>
    <contour>
      <point x="2316" y="-37" type="curve" smooth="yes"/>
      <point x="2762" y="-37"/>
      <point x="2967" y="102"/>
      <point x="2967" y="331" type="curve" smooth="yes"/>
      <point x="2967" y="354" type="line" smooth="yes"/>
      <point x="2967" y="536"/>
      <point x="2830" y="626"/>
      <point x="2542" y="621" type="curve"/>
      <point x="2659" y="526" type="line"/>
      <point x="2659" y="626" type="line"/>
      <point x="2935" y="626"/>
      <point x="3026" y="775"/>
      <point x="3026" y="992" type="curve" smooth="yes"/>
      <point x="3026" y="1066" type="line"/>
      <point x="2640" y="1066" type="line"/>
      <point x="2640" y="981" type="line" smooth="yes"/>
      <point x="2640" y="867"/>
      <point x="2547" y="764"/>
      <point x="2365" y="764" type="curve" smooth="yes"/>
      <point x="1717" y="764" type="line"/>
      <point x="1717" y="483" type="line"/>
      <point x="2361" y="483" type="line" smooth="yes"/>
      <point x="2526" y="483"/>
      <point x="2565" y="434"/>
      <point x="2565" y="379" type="curve" smooth="yes"/>
      <point x="2565" y="378" type="line" smooth="yes"/>
      <point x="2565" y="315"/>
      <point x="2508" y="266"/>
      <point x="2299" y="266" type="curve" smooth="yes"/>
      <point x="2002" y="266"/>
      <point x="1887" y="407"/>
      <point x="1887" y="753" type="curve" smooth="yes"/>
      <point x="1887" y="958" type="line" smooth="yes"/>
      <point x="1887" y="1296"/>
      <point x="1995" y="1428"/>
      <point x="2378" y="1428" type="curve" smooth="yes"/>
      <point x="2523" y="1428"/>
      <point x="2686" y="1404"/>
      <point x="2816" y="1364" type="curve"/>
      <point x="2796" y="1653" type="line"/>
      <point x="2669" y="1702"/>
      <point x="2489" y="1731"/>
      <point x="2312" y="1731" type="curve" smooth="yes"/>
      <point x="1781" y="1731"/>
      <point x="1503" y="1465"/>
      <point x="1503" y="1016" type="curve" smooth="yes"/>
      <point x="1503" y="753" type="line" smooth="yes"/>
      <point x="1503" y="234"/>
      <point x="1761" y="-37"/>
    </contour>
    <contour>
      <point x="1648" y="942" type="line"/>
      <point x="1766" y="942" type="line"/>
      <point x="1776" y="956" type="line"/>
      <point x="2827" y="956" type="line"/>
      <point x="2838" y="942" type="line"/>
      <point x="3052" y="942" type="line"/>
      <point x="3052" y="1221" type="line"/>
      <point x="1648" y="1221" type="line"/>
    </contour>
    <contour>
      <point x="2816" y="1364" type="line"/>
      <point x="2816" y="1396" type="line"/>
      <point x="2816" y="1665"/>
      <point x="2936" y="1776"/>
      <point x="3207" y="1776" type="curve" smooth="yes"/>
      <point x="3293" y="1776"/>
      <point x="3385" y="1764"/>
      <point x="3465" y="1742" type="curve"/>
      <point x="3445" y="2031" type="line"/>
      <point x="3351" y="2058"/>
      <point x="3226" y="2079"/>
      <point x="3121" y="2079" type="curve" smooth="yes"/>
      <point x="2754" y="2079"/>
      <point x="2484" y="1915"/>
      <point x="2484" y="1556" type="curve"/>
      <point x="2484" y="1524" type="line"/>
    </contour>
    <component base="one.gm"/>
    <component base="_cap.shiro_right" xOffset="2837"/>
  </outline>
</glyph>
<glyph name="Yakash.gm" format="2">
  <unicode hex="0A75"/>
  <anchor x="800" y="100" name="_bottom"/>
  <anchor x="600" y="260" name="bottom1"/>
  <outline>
    <contour>
      <point x="659" y="-593" type="curve" smooth="yes"/>
      <point x="987" y="-593"/>
      <point x="1127" y="-447"/>
      <point x="1127" y="-198" type="curve"/>
      <point x="773" y="-198" type="line"/>
      <point x="773" y="-256"/>
      <point x="757" y="-326"/>
      <point x="669" y="-326" type="curve" smooth="yes"/>
      <point x="580" y="-326"/>
      <point x="564" y="-256"/>
      <point x="564" y="-198" type="curve" smooth="yes"/>
      <point x="564" y="58" type="line"/>
      <point x="180" y="58" type="line"/>
      <point x="180" y="-198" type="line" smooth="yes"/>
      <point x="180" y="-437"/>
      <point x="323" y="-593"/>
    </contour>
  </outline>
</glyph>
<glyph name="Khanda.gm" format="2">
  <advance width="1853"/>
  <unicode hex="262C"/>
  <outline>
    <contour>
      <point x="831" y="-36" type="line"/>
      <point x="1018" y="-36" type="line"/>
      <point x="968" y="176" type="line"/>
      <point x="1157" y="25" type="line"/>
      <point x="1278" y="128" type="line"/>
      <point x="1011" y="237" type="line"/>
      <point x="1246" y="237"/>
      <point x="1675" y="420"/>
      <point x="1675" y="846" type="curve" smooth="yes"/>
      <point x="1675" y="1072"/>
      <point x="1538" y="1230"/>
      <point x="1351" y="1248" type="curve"/>
      <point x="1412" y="1175"/>
      <point x="1460" y="1068"/>
      <point x="1460" y="902" type="curve" smooth="yes"/>
      <point x="1460" y="495"/>
      <point x="1153" y="347"/>
      <point x="965" y="329" type="curve"/>
      <point x="965" y="397" type="line"/>
      <point x="1088" y="473" type="line"/>
      <point x="1038" y="614"/>
      <point x="1013" y="758"/>
      <point x="1013" y="902" type="curve" smooth="yes"/>
      <point x="1013" y="1056"/>
      <point x="1041" y="1210"/>
      <point x="1098" y="1360" type="curve"/>
      <point x="933" y="1518" type="line"/>
      <point x="764" y="1360" type="line"/>
      <point x="821" y="1209"/>
      <point x="851" y="1054"/>
      <point x="851" y="899" type="curve" smooth="yes"/>
      <point x="851" y="755"/>
      <point x="826" y="612"/>
      <point x="776" y="473" type="curve"/>
      <point x="885" y="402" type="line"/>
      <point x="885" y="329" type="line"/>
      <point x="696" y="347"/>
      <point x="393" y="495"/>
      <point x="393" y="902" type="curve" smooth="yes"/>
      <point x="393" y="1068"/>
      <point x="441" y="1175"/>
      <point x="502" y="1248" type="curve"/>
      <point x="315" y="1230"/>
      <point x="178" y="1072"/>
      <point x="178" y="846" type="curve" smooth="yes"/>
      <point x="178" y="420"/>
      <point x="603" y="237"/>
      <point x="838" y="237" type="curve"/>
      <point x="571" y="128" type="line"/>
      <point x="692" y="25" type="line"/>
      <point x="881" y="176" type="line"/>
    </contour>
    <contour>
      <point x="931" y="538" type="curve" smooth="yes"/>
      <point x="1185" y="538"/>
      <point x="1347" y="682"/>
      <point x="1347" y="920" type="curve" smooth="yes"/>
      <point x="1347" y="1157"/>
      <point x="1185" y="1301"/>
      <point x="931" y="1301" type="curve" smooth="yes"/>
      <point x="675" y="1301"/>
      <point x="513" y="1157"/>
      <point x="513" y="920" type="curve" smooth="yes"/>
      <point x="513" y="682"/>
      <point x="675" y="538"/>
    </contour>
    <contour>
      <point x="931" y="584" type="curve" smooth="yes"/>
      <point x="753" y="584"/>
      <point x="673" y="701"/>
      <point x="673" y="920" type="curve" smooth="yes"/>
      <point x="673" y="1137"/>
      <point x="753" y="1255"/>
      <point x="931" y="1255" type="curve" smooth="yes"/>
      <point x="1107" y="1255"/>
      <point x="1187" y="1137"/>
      <point x="1187" y="920" type="curve" smooth="yes"/>
      <point x="1187" y="701"/>
      <point x="1107" y="584"/>
    </contour>
  </outline>
</glyph>
<glyph name="Addak.gm.alt" format="2">
  <anchor x="600" y="1221" name="_top1"/>
  <outline>
    <contour>
      <point x="198" y="1411" type="curve" smooth="yes"/>
      <point x="393" y="1411"/>
      <point x="472" y="1499"/>
      <point x="472" y="1721" type="curve"/>
      <point x="351" y="1721" type="line"/>
      <point x="336" y="1654"/>
      <point x="284" y="1619"/>
      <point x="198" y="1619" type="curve" smooth="yes"/>
      <point x="104" y="1619"/>
      <point x="57" y="1654"/>
      <point x="42" y="1721" type="curve"/>
      <point x="-80" y="1721" type="line"/>
      <point x="-80" y="1499"/>
      <point x="-1" y="1411"/>
    </contour>
  </outline>
</glyph>
<glyph name="AddakBindi.gm.alt" format="2">
  <anchor x="600" y="1200" name="_top1"/>
  <outline>
    <contour>
      <point x="198" y="1411" type="curve" smooth="yes"/>
      <point x="393" y="1411"/>
      <point x="472" y="1499"/>
      <point x="472" y="1721" type="curve"/>
      <point x="350" y="1721" type="line"/>
      <point x="335" y="1654"/>
      <point x="284" y="1619"/>
      <point x="198" y="1619" type="curve" smooth="yes"/>
      <point x="104" y="1619"/>
      <point x="56" y="1654"/>
      <point x="41" y="1721" type="curve"/>
      <point x="-80" y="1721" type="line"/>
      <point x="-80" y="1499"/>
      <point x="-1" y="1411"/>
    </contour>
    <contour>
      <point x="195" y="1665" type="curve" smooth="yes"/>
      <point x="271" y="1665"/>
      <point x="302" y="1701"/>
      <point x="302" y="1758" type="curve" smooth="yes"/>
      <point x="302" y="1760" type="line" smooth="yes"/>
      <point x="302" y="1817"/>
      <point x="271" y="1853"/>
      <point x="195" y="1853" type="curve" smooth="yes"/>
      <point x="120" y="1853"/>
      <point x="89" y="1816"/>
      <point x="89" y="1760" type="curve" smooth="yes"/>
      <point x="89" y="1757" type="line" smooth="yes"/>
      <point x="89" y="1702"/>
      <point x="120" y="1665"/>
    </contour>
  </outline>
</glyph>
<glyph name="AddakBindiDist.gm" format="2">
  <anchor x="560" y="1200" name="_top"/>
  <outline>
    <contour>
      <point x="228" y="1689" type="curve" smooth="yes"/>
      <point x="313" y="1689"/>
      <point x="348" y="1729"/>
      <point x="348" y="1794" type="curve" smooth="yes"/>
      <point x="348" y="1796" type="line" smooth="yes"/>
      <point x="348" y="1859"/>
      <point x="313" y="1901"/>
      <point x="228" y="1901" type="curve" smooth="yes"/>
      <point x="143" y="1901"/>
      <point x="108" y="1859"/>
      <point x="108" y="1795" type="curve" smooth="yes"/>
      <point x="108" y="1792" type="line" smooth="yes"/>
      <point x="108" y="1730"/>
      <point x="143" y="1689"/>
    </contour>
    <contour>
      <point x="226" y="1350" type="curve" smooth="yes"/>
      <point x="487" y="1350"/>
      <point x="592" y="1468"/>
      <point x="592" y="1764" type="curve"/>
      <point x="430" y="1764" type="line"/>
      <point x="410" y="1674"/>
      <point x="341" y="1628"/>
      <point x="226" y="1628" type="curve" smooth="yes"/>
      <point x="101" y="1628"/>
      <point x="38" y="1674"/>
      <point x="18" y="1764" type="curve"/>
      <point x="-144" y="1764" type="line"/>
      <point x="-144" y="1468"/>
      <point x="-38" y="1350"/>
    </contour>
  </outline>
</glyph>
<glyph name="AddakDist.gm" format="2">
  <anchor x="560" y="1200" name="_top"/>
  <outline>
    <contour>
      <point x="226" y="1350" type="curve" smooth="yes"/>
      <point x="487" y="1350"/>
      <point x="592" y="1468"/>
      <point x="592" y="1764" type="curve"/>
      <point x="430" y="1764" type="line"/>
      <point x="410" y="1674"/>
      <point x="341" y="1628"/>
      <point x="226" y="1628" type="curve" smooth="yes"/>
      <point x="101" y="1628"/>
      <point x="38" y="1674"/>
      <point x="18" y="1764" type="curve"/>
      <point x="-144" y="1764" type="line"/>
      <point x="-144" y="1468"/>
      <point x="-38" y="1350"/>
    </contour>
  </outline>
</glyph>
<glyph name="AddhaMa.gm" format="2">
  <advance width="1524"/>
  <anchor x="1659" y="100" name="bottom1"/>
  <anchor x="1507" y="1200" name="top"/>
  <outline>
    <contour>
      <point x="80" y="322" type="line"/>
      <point x="1155" y="322" type="line"/>
      <point x="1155" y="634" type="line"/>
      <point x="80" y="634" type="line"/>
    </contour>
    <component base="_danda" xOffset="831"/>
  </outline>
</glyph>
<glyph name="AddhaTha.gm" format="2">
  <advance width="1555"/>
  <anchor x="1670" y="100" name="bottom1"/>
  <anchor x="1538" y="1200" name="top"/>
  <outline>
    <contour>
      <point x="624" y="118" type="curve" smooth="yes"/>
      <point x="804" y="118"/>
      <point x="984" y="145"/>
      <point x="1166" y="198" type="curve"/>
      <point x="1166" y="509" type="line"/>
      <point x="984" y="456"/>
      <point x="804" y="429"/>
      <point x="624" y="429" type="curve" smooth="yes"/>
      <point x="444" y="429"/>
      <point x="264" y="456"/>
      <point x="81" y="509" type="curve"/>
      <point x="81" y="198" type="line"/>
      <point x="264" y="145"/>
      <point x="444" y="118"/>
    </contour>
    <contour>
      <point x="11" y="942" type="line"/>
      <point x="1074" y="942" type="line"/>
      <point x="1074" y="1221" type="line"/>
      <point x="11" y="1221" type="line"/>
    </contour>
    <component base="_danda" xOffset="862"/>
    <component base="_cap.shiro_left"/>
  </outline>
</glyph>
<glyph name="AddhaYa.gm" format="2">
  <advance width="1754"/>
  <anchor x="1800" y="100" name="bottom1"/>
  <anchor x="1737" y="1200" name="top"/>
  <outline>
    <contour>
      <point x="490" y="71" type="curve" smooth="yes"/>
      <point x="663" y="71"/>
      <point x="817" y="92"/>
      <point x="939" y="133" type="curve"/>
      <point x="939" y="463" type="line"/>
      <point x="1411" y="463" type="line"/>
      <point x="1411" y="762" type="line"/>
      <point x="566" y="762" type="line"/>
      <point x="566" y="360" type="line"/>
      <point x="686" y="415" type="line"/>
      <point x="630" y="402"/>
      <point x="552" y="395"/>
      <point x="457" y="395" type="curve" smooth="yes"/>
      <point x="314" y="395"/>
      <point x="177" y="416"/>
      <point x="57" y="456" type="curve"/>
      <point x="57" y="135" type="line"/>
      <point x="178" y="93"/>
      <point x="327" y="71"/>
    </contour>
    <contour>
      <point x="1" y="942" type="line"/>
      <point x="1404" y="942" type="line"/>
      <point x="1404" y="1221" type="line"/>
      <point x="1" y="1221" type="line"/>
    </contour>
    <component base="_danda" xOffset="1061"/>
    <component base="_cap.shiro_left"/>
  </outline>
</glyph>
<glyph name="Bindi.gm.alt" format="2">
  <anchor x="600" y="1200" name="_top1"/>
  <outline>
    <contour>
      <point x="39" y="1480" type="curve" smooth="yes"/>
      <point x="145" y="1480"/>
      <point x="188" y="1531"/>
      <point x="188" y="1611" type="curve" smooth="yes"/>
      <point x="188" y="1614" type="line" smooth="yes"/>
      <point x="188" y="1693"/>
      <point x="145" y="1745"/>
      <point x="39" y="1745" type="curve" smooth="yes"/>
      <point x="-68" y="1745"/>
      <point x="-111" y="1692"/>
      <point x="-111" y="1613" type="curve" smooth="yes"/>
      <point x="-111" y="1610" type="line" smooth="yes"/>
      <point x="-111" y="1531"/>
      <point x="-68" y="1480"/>
    </contour>
  </outline>
</glyph>
<glyph name="KaViramaRa.gm" format="2">
  <advance width="1755"/>
  <anchor x="1514" y="-367" name="bottom"/>
  <anchor x="1831" y="-369" name="bottom1"/>
  <anchor x="1735" y="1200" name="top"/>
  <outline>
    <contour>
      <point x="827" y="-450" type="line"/>
      <point x="1338" y="-450" type="line"/>
      <point x="1575" y="-378" type="line"/>
      <point x="1605" y="-288"/>
      <point x="1609" y="-195"/>
      <point x="1609" y="-130" type="curve"/>
      <point x="1609" y="-82" type="line" smooth="yes"/>
      <point x="1609" y="240"/>
      <point x="1465" y="419"/>
      <point x="1337" y="529" type="curve"/>
      <point x="1198" y="651" type="line" smooth="yes"/>
      <point x="1087" y="748"/>
      <point x="903" y="844"/>
      <point x="630" y="844" type="curve" smooth="yes"/>
      <point x="272" y="844"/>
      <point x="87" y="705"/>
      <point x="87" y="466" type="curve"/>
      <point x="87" y="465" type="line"/>
      <point x="87" y="224"/>
      <point x="294" y="85"/>
      <point x="659" y="85" type="curve" smooth="yes"/>
      <point x="983" y="85"/>
      <point x="1155" y="190"/>
      <point x="1258" y="301" type="curve"/>
      <point x="1306" y="384" type="line"/>
      <point x="1446" y="491"/>
      <point x="1565" y="693"/>
      <point x="1596" y="919" type="curve" smooth="yes"/>
      <point x="1616" y="1064" type="line"/>
      <point x="1203" y="1059" type="line"/>
      <point x="1187" y="930" type="line" smooth="yes"/>
      <point x="1173" y="816"/>
      <point x="1128" y="679"/>
      <point x="1094" y="621" type="curve"/>
      <point x="1041" y="461" type="line"/>
      <point x="951" y="404"/>
      <point x="824" y="388"/>
      <point x="707" y="388" type="curve" smooth="yes"/>
      <point x="545" y="388"/>
      <point x="482" y="412"/>
      <point x="482" y="461" type="curve"/>
      <point x="482" y="463" type="line"/>
      <point x="482" y="513"/>
      <point x="545" y="541"/>
      <point x="707" y="541" type="curve" smooth="yes"/>
      <point x="835" y="541"/>
      <point x="965" y="509"/>
      <point x="1040" y="461" type="curve"/>
      <point x="1107" y="331" type="line"/>
      <point x="1173" y="215"/>
      <point x="1214" y="105"/>
      <point x="1214" y="-77" type="curve" smooth="yes"/>
      <point x="1214" y="-118" type="line" smooth="yes"/>
      <point x="1214" y="-147"/>
      <point x="1214" y="-172"/>
      <point x="1211" y="-198" type="curve"/>
      <point x="1262" y="-118" type="line"/>
      <point x="794" y="-118" type="line"/>
    </contour>
    <contour>
      <point x="1946" y="-783" type="curve"/>
      <point x="1895" y="-420" type="line"/>
      <point x="1766" y="-340"/>
      <point x="1523" y="-223"/>
      <point x="1358" y="-156" type="curve"/>
      <point x="1228" y="-410" type="line"/>
      <point x="1446" y="-497"/>
      <point x="1730" y="-648"/>
    </contour>
    <contour>
      <point x="27" y="941" type="line"/>
      <point x="1730" y="941" type="line"/>
      <point x="1730" y="1221" type="line"/>
      <point x="27" y="1221" type="line"/>
    </contour>
    <component base="_cap.shiro_left"/>
    <component base="_cap.shiro_right" xOffset="1454"/>
  </outline>
</glyph>
<glyph name="LaHa.gm" format="2">
  <advance width="1907"/>
  <anchor x="1979" y="-587" name="bottom1"/>
  <anchor x="1874" y="1200" name="top"/>
  <outline>
    <contour>
      <point x="954" y="277" type="curve"/>
      <point x="1255" y="398"/>
      <point x="1601" y="729"/>
      <point x="1664" y="1085" type="curve" smooth="yes"/>
      <point x="1672" y="1130" type="line"/>
      <point x="1277" y="1130" type="line"/>
      <point x="1256" y="1055" type="line" smooth="yes"/>
      <point x="1197" y="844"/>
      <point x="1080" y="710"/>
      <point x="954" y="615" type="curve"/>
      <point x="830" y="707"/>
      <point x="712" y="842"/>
      <point x="652" y="1055" type="curve" smooth="yes"/>
      <point x="631" y="1130" type="line"/>
      <point x="235" y="1130" type="line"/>
      <point x="243" y="1085" type="line" smooth="yes"/>
      <point x="307" y="726"/>
      <point x="620" y="398"/>
    </contour>
    <contour>
      <point x="216" y="0" type="curve"/>
      <point x="614" y="0" type="line"/>
      <point x="614" y="23" type="line"/>
      <point x="538" y="109"/>
      <point x="498" y="198"/>
      <point x="498" y="286" type="curve" smooth="yes"/>
      <point x="498" y="288" type="line" smooth="yes"/>
      <point x="498" y="396"/>
      <point x="557" y="468"/>
      <point x="651" y="497" type="curve"/>
      <point x="526" y="793" type="line"/>
      <point x="245" y="732"/>
      <point x="99" y="575"/>
      <point x="99" y="339" type="curve" smooth="yes"/>
      <point x="99" y="330" type="line" smooth="yes"/>
      <point x="99" y="205"/>
      <point x="139" y="92"/>
    </contour>
    <contour>
      <point x="1674" y="0" type="line"/>
      <point x="1753" y="74"/>
      <point x="1808" y="183"/>
      <point x="1808" y="320" type="curve" smooth="yes"/>
      <point x="1808" y="329" type="line" smooth="yes"/>
      <point x="1808" y="575"/>
      <point x="1663" y="732"/>
      <point x="1382" y="793" type="curve"/>
      <point x="1257" y="497" type="line"/>
      <point x="1358" y="468"/>
      <point x="1410" y="396"/>
      <point x="1410" y="288" type="curve" smooth="yes"/>
      <point x="1410" y="286" type="line" smooth="yes"/>
      <point x="1410" y="186"/>
      <point x="1369" y="106"/>
      <point x="1290" y="33" type="curve"/>
      <point x="1290" y="0" type="line"/>
    </contour>
    <contour>
      <point x="21" y="942" type="line"/>
      <point x="1857" y="942" type="line"/>
      <point x="1857" y="1221" type="line"/>
      <point x="21" y="1221" type="line"/>
    </contour>
    <contour>
      <point x="1118" y="-775" type="curve" smooth="yes"/>
      <point x="1497" y="-775"/>
      <point x="1674" y="-613"/>
      <point x="1674" y="-370" type="curve" smooth="yes"/>
      <point x="1674" y="0" type="line"/>
      <point x="1290" y="0" type="line"/>
      <point x="1292" y="-368" type="line" smooth="yes"/>
      <point x="1292" y="-446"/>
      <point x="1231" y="-488"/>
      <point x="1111" y="-488" type="curve" smooth="yes"/>
      <point x="997" y="-488"/>
      <point x="918" y="-460"/>
      <point x="918" y="-405" type="curve" smooth="yes"/>
      <point x="918" y="-404" type="line" smooth="yes"/>
      <point x="918" y="-381"/>
      <point x="939" y="-365"/>
      <point x="976" y="-365" type="curve" smooth="yes"/>
      <point x="1180" y="-365" type="line"/>
      <point x="1180" y="-100" type="line"/>
      <point x="925" y="-100" type="line" smooth="yes"/>
      <point x="690" y="-100"/>
      <point x="558" y="-199"/>
      <point x="558" y="-387" type="curve" smooth="yes"/>
      <point x="558" y="-400" type="line" smooth="yes"/>
      <point x="558" y="-599"/>
      <point x="752" y="-775"/>
    </contour>
    <component base="_cap.shiro_left"/>
    <component base="_cap.shiro_right" xOffset="1606"/>
  </outline>
</glyph>
<glyph name="MatraAi.gm.alt" format="2">
  <anchor x="600" y="1200" name="_top"/>
  <anchor x="1041" y="1401" name="top1"/>
  <outline>
    <contour>
      <point x="295" y="1188" type="line"/>
      <point x="407" y="1188" type="line"/>
      <point x="398" y="1376" type="line" smooth="yes"/>
      <point x="380" y="1754"/>
      <point x="250" y="1949"/>
      <point x="-157" y="1949" type="curve" smooth="yes"/>
      <point x="-214" y="1949"/>
      <point x="-270" y="1949"/>
      <point x="-371" y="1931" type="curve"/>
      <point x="-387" y="1671" type="line"/>
      <point x="-309" y="1687"/>
      <point x="-202" y="1696"/>
      <point x="-135" y="1696" type="curve" smooth="yes"/>
      <point x="148" y="1696"/>
      <point x="238" y="1573"/>
      <point x="280" y="1412" type="curve"/>
      <point x="269" y="1408" type="line"/>
    </contour>
    <contour>
      <point x="229" y="1188" type="line"/>
      <point x="316" y="1188" type="line"/>
      <point x="311" y="1244" type="line" smooth="yes"/>
      <point x="290" y="1479"/>
      <point x="179" y="1600"/>
      <point x="-109" y="1600" type="curve" smooth="yes"/>
      <point x="-157" y="1600"/>
      <point x="-226" y="1595"/>
      <point x="-277" y="1585" type="curve"/>
      <point x="-294" y="1334" type="line"/>
      <point x="-205" y="1350"/>
      <point x="-135" y="1358"/>
      <point x="-63" y="1358" type="curve" smooth="yes"/>
      <point x="109" y="1358"/>
      <point x="207" y="1308"/>
      <point x="224" y="1215" type="curve" smooth="yes"/>
    </contour>
  </outline>
</glyph>
<glyph name="MatraAu.gm.alt" format="2">
  <anchor x="600" y="1200" name="_top"/>
  <anchor x="1194" y="1458" name="top1"/>
  <outline>
    <contour>
      <point x="-66" y="1348" type="curve"/>
      <point x="131" y="1348" type="line"/>
      <point x="126" y="1366"/>
      <point x="123" y="1381"/>
      <point x="123" y="1400" type="curve"/>
      <point x="123" y="1475"/>
      <point x="168" y="1515"/>
      <point x="241" y="1515" type="curve"/>
      <point x="314" y="1515"/>
      <point x="358" y="1475"/>
      <point x="358" y="1400" type="curve"/>
      <point x="358" y="1381"/>
      <point x="355" y="1366"/>
      <point x="350" y="1348" type="curve"/>
      <point x="547" y="1348" type="line"/>
      <point x="592" y="1390"/>
      <point x="616" y="1447"/>
      <point x="616" y="1526" type="curve"/>
      <point x="616" y="1684"/>
      <point x="484" y="1793"/>
      <point x="234" y="1793" type="curve"/>
      <point x="117" y="1793"/>
      <point x="20" y="1751"/>
      <point x="-41" y="1696" type="curve"/>
      <point x="-12" y="1652" type="line"/>
      <point x="-96" y="1616"/>
      <point x="-135" y="1558"/>
      <point x="-135" y="1496" type="curve"/>
      <point x="-135" y="1440"/>
      <point x="-111" y="1389"/>
    </contour>
    <contour>
      <point x="-259" y="1514" type="curve"/>
      <point x="-188" y="1514"/>
      <point x="-148" y="1538"/>
      <point x="-116" y="1575" type="curve"/>
      <point x="-101" y="1565" type="line"/>
      <point x="234" y="1565" type="line"/>
      <point x="234" y="1793" type="line"/>
      <point x="-116" y="1793" type="line" smooth="yes"/>
      <point x="-215" y="1793"/>
      <point x="-285" y="1830"/>
      <point x="-308" y="1951" type="curve"/>
      <point x="-460" y="1951" type="line"/>
      <point x="-454" y="1771" type="line" smooth="yes"/>
      <point x="-449" y="1620"/>
      <point x="-394" y="1514"/>
    </contour>
  </outline>
</glyph>
<glyph name="MatraEe.gm.alt" format="2">
  <anchor x="600" y="1200" name="_top"/>
  <anchor x="896" y="1401" name="top1"/>
  <outline>
    <contour>
      <point x="192" y="1189" type="line"/>
      <point x="379" y="1189" type="line"/>
      <point x="349" y="1672"/>
      <point x="108" y="1789"/>
      <point x="-264" y="1789" type="curve" smooth="yes"/>
      <point x="-350" y="1789"/>
      <point x="-434" y="1783"/>
      <point x="-510" y="1773" type="curve"/>
      <point x="-536" y="1447" type="line"/>
      <point x="-457" y="1456"/>
      <point x="-324" y="1463"/>
      <point x="-299" y="1463" type="curve" smooth="yes"/>
      <point x="72" y="1463"/>
      <point x="170" y="1344"/>
      <point x="191" y="1196" type="curve" smooth="yes"/>
    </contour>
  </outline>
</glyph>
<glyph name="MatraIiBindi.gm" format="2">
  <advance width="659"/>
  <anchor x="1086" y="1401" name="top1"/>
  <outline>
    <contour>
      <point x="525" y="1681" type="curve" smooth="yes"/>
      <point x="631" y="1681"/>
      <point x="674" y="1732"/>
      <point x="674" y="1812" type="curve" smooth="yes"/>
      <point x="674" y="1815" type="line" smooth="yes"/>
      <point x="674" y="1894"/>
      <point x="631" y="1946"/>
      <point x="525" y="1946" type="curve" smooth="yes"/>
      <point x="418" y="1946"/>
      <point x="375" y="1893"/>
      <point x="375" y="1814" type="curve" smooth="yes"/>
      <point x="375" y="1811" type="line" smooth="yes"/>
      <point x="375" y="1732"/>
      <point x="418" y="1681"/>
    </contour>
    <component base="MatraIi.gm"/>
  </outline>
</glyph>
<glyph name="MatraOo.gm.alt" format="2">
  <anchor x="600" y="1200" name="_top"/>
  <anchor x="944" y="1401" name="top1"/>
  <outline>
    <contour>
      <point x="199" y="1218" type="curve"/>
      <point x="388" y="1218" type="line"/>
      <point x="393" y="1276"/>
      <point x="397" y="1332"/>
      <point x="397" y="1393" type="curve" smooth="yes"/>
      <point x="397" y="1652"/>
      <point x="254" y="1724"/>
      <point x="-18" y="1724" type="curve" smooth="yes"/>
      <point x="-145" y="1724" type="line" smooth="yes"/>
      <point x="-271" y="1724"/>
      <point x="-321" y="1773"/>
      <point x="-333" y="1887" type="curve"/>
      <point x="-520" y="1887" type="line"/>
      <point x="-520" y="1733" type="line" smooth="yes"/>
      <point x="-520" y="1535"/>
      <point x="-446" y="1394"/>
      <point x="-182" y="1394" type="curve" smooth="yes"/>
      <point x="-53" y="1394" type="line" smooth="yes"/>
      <point x="118" y="1394"/>
      <point x="182" y="1357"/>
    </contour>
  </outline>
</glyph>
<glyph name="MatraU.gm.alt" format="2">
  <anchor x="600" y="100" name="_bottom1"/>
  <outline>
    <contour>
      <point x="15" y="-1073" type="curve" smooth="yes"/>
      <point x="219" y="-1073"/>
      <point x="365" y="-1053"/>
      <point x="495" y="-1021" type="curve"/>
      <point x="511" y="-808" type="line"/>
      <point x="384" y="-838"/>
      <point x="203" y="-859"/>
      <point x="24" y="-859" type="curve" smooth="yes"/>
      <point x="-153" y="-859"/>
      <point x="-344" y="-837"/>
      <point x="-487" y="-806" type="curve"/>
      <point x="-470" y="-1021" type="line"/>
      <point x="-323" y="-1055"/>
      <point x="-153" y="-1073"/>
    </contour>
  </outline>
</glyph>
<glyph name="MatraUu.gm.alt" format="2">
  <anchor x="600" y="100" name="_bottom1"/>
  <outline>
    <contour>
      <point x="1" y="-1051" type="curve" smooth="yes"/>
      <point x="205" y="-1051"/>
      <point x="351" y="-1031"/>
      <point x="481" y="-999" type="curve"/>
      <point x="497" y="-803" type="line"/>
      <point x="370" y="-833"/>
      <point x="189" y="-854"/>
      <point x="10" y="-854" type="curve" smooth="yes"/>
      <point x="-167" y="-854"/>
      <point x="-358" y="-832"/>
      <point x="-501" y="-801" type="curve"/>
      <point x="-484" y="-999" type="line"/>
      <point x="-337" y="-1033"/>
      <point x="-167" y="-1051"/>
    </contour>
    <contour>
      <point x="-3" y="-1336" type="curve" smooth="yes"/>
      <point x="202" y="-1336"/>
      <point x="347" y="-1316"/>
      <point x="478" y="-1284" type="curve"/>
      <point x="494" y="-1088" type="line"/>
      <point x="366" y="-1118"/>
      <point x="186" y="-1139"/>
      <point x="7" y="-1139" type="curve" smooth="yes"/>
      <point x="-171" y="-1139"/>
      <point x="-361" y="-1117"/>
      <point x="-504" y="-1086" type="curve"/>
      <point x="-488" y="-1284" type="line"/>
      <point x="-340" y="-1319"/>
      <point x="-170" y="-1336"/>
    </contour>
  </outline>
</glyph>
<glyph name="NaHa.gm" format="2">
  <advance width="1700"/>
  <anchor x="1769" y="-587" name="bottom1"/>
  <anchor x="1240" y="1200" name="top"/>
  <outline>
    <contour>
      <point x="210" y="0" type="curve"/>
      <point x="614" y="0" type="line"/>
      <point x="614" y="22" type="line"/>
      <point x="546" y="110"/>
      <point x="511" y="195"/>
      <point x="511" y="272" type="curve" smooth="yes"/>
      <point x="511" y="273" type="line" smooth="yes"/>
      <point x="511" y="398"/>
      <point x="618" y="501"/>
      <point x="853" y="552" type="curve"/>
      <point x="1083" y="491"/>
      <point x="1189" y="398"/>
      <point x="1189" y="273" type="curve" smooth="yes"/>
      <point x="1189" y="272" type="line" smooth="yes"/>
      <point x="1189" y="192"/>
      <point x="1153" y="119"/>
      <point x="1084" y="35" type="curve"/>
      <point x="1084" y="0" type="line"/>
      <point x="1468" y="0" type="line"/>
      <point x="1558" y="83"/>
      <point x="1593" y="191"/>
      <point x="1593" y="305" type="curve" smooth="yes"/>
      <point x="1593" y="321" type="line" smooth="yes"/>
      <point x="1593" y="584"/>
      <point x="1384" y="761"/>
      <point x="851" y="844" type="curve"/>
      <point x="317" y="761"/>
      <point x="107" y="584"/>
      <point x="107" y="321" type="curve" smooth="yes"/>
      <point x="107" y="305" type="line" smooth="yes"/>
      <point x="107" y="189"/>
      <point x="142" y="84"/>
    </contour>
    <contour>
      <point x="666" y="648" type="line"/>
      <point x="1050" y="648" type="line"/>
      <point x="1050" y="1072" type="line"/>
      <point x="666" y="1072" type="line"/>
    </contour>
    <contour>
      <point x="64" y="942" type="line"/>
      <point x="1638" y="942" type="line"/>
      <point x="1638" y="1221" type="line"/>
      <point x="64" y="1221" type="line"/>
    </contour>
    <contour>
      <point x="908" y="-775" type="curve" smooth="yes"/>
      <point x="1287" y="-775"/>
      <point x="1461" y="-613"/>
      <point x="1464" y="-370" type="curve" smooth="yes"/>
      <point x="1468" y="0" type="line"/>
      <point x="1084" y="0" type="line"/>
      <point x="1082" y="-368" type="line" smooth="yes"/>
      <point x="1082" y="-446"/>
      <point x="1021" y="-488"/>
      <point x="901" y="-488" type="curve" smooth="yes"/>
      <point x="787" y="-488"/>
      <point x="708" y="-460"/>
      <point x="708" y="-405" type="curve" smooth="yes"/>
      <point x="708" y="-404" type="line" smooth="yes"/>
      <point x="708" y="-381"/>
      <point x="729" y="-365"/>
      <point x="766" y="-365" type="curve" smooth="yes"/>
      <point x="970" y="-365" type="line"/>
      <point x="970" y="-100" type="line"/>
      <point x="715" y="-100" type="line" smooth="yes"/>
      <point x="480" y="-100"/>
      <point x="348" y="-199"/>
      <point x="348" y="-387" type="curve" smooth="yes"/>
      <point x="348" y="-400" type="line" smooth="yes"/>
      <point x="348" y="-599"/>
      <point x="542" y="-775"/>
    </contour>
    <component base="_cap.shiro_left"/>
    <component base="_cap.shiro_right" xOffset="1399"/>
  </outline>
</glyph>
<glyph name="NaViramaRa.gm" format="2">
  <advance width="1700"/>
  <anchor x="1382" y="-387" name="bottom"/>
  <anchor x="1699" y="-399" name="bottom1"/>
  <anchor x="1240" y="1200" name="top"/>
  <outline>
    <contour>
      <point x="210" y="0" type="curve"/>
      <point x="614" y="0" type="line"/>
      <point x="614" y="22" type="line"/>
      <point x="546" y="110"/>
      <point x="511" y="195"/>
      <point x="511" y="272" type="curve" smooth="yes"/>
      <point x="511" y="273" type="line" smooth="yes"/>
      <point x="511" y="398"/>
      <point x="618" y="501"/>
      <point x="853" y="552" type="curve"/>
      <point x="1083" y="491"/>
      <point x="1189" y="398"/>
      <point x="1189" y="273" type="curve" smooth="yes"/>
      <point x="1189" y="272" type="line" smooth="yes"/>
      <point x="1189" y="192"/>
      <point x="1162" y="114"/>
      <point x="1093" y="30" type="curve"/>
      <point x="1093" y="0" type="line"/>
      <point x="1477" y="0" type="line"/>
      <point x="1546" y="86"/>
      <point x="1593" y="191"/>
      <point x="1593" y="305" type="curve" smooth="yes"/>
      <point x="1593" y="321" type="line" smooth="yes"/>
      <point x="1593" y="584"/>
      <point x="1384" y="761"/>
      <point x="851" y="844" type="curve"/>
      <point x="317" y="761"/>
      <point x="107" y="584"/>
      <point x="107" y="321" type="curve" smooth="yes"/>
      <point x="107" y="305" type="line" smooth="yes"/>
      <point x="107" y="189"/>
      <point x="142" y="84"/>
    </contour>
    <contour>
      <point x="666" y="648" type="line"/>
      <point x="1050" y="648" type="line"/>
      <point x="1050" y="1072" type="line"/>
      <point x="666" y="1072" type="line"/>
    </contour>
    <contour>
      <point x="64" y="942" type="line"/>
      <point x="1638" y="942" type="line"/>
      <point x="1638" y="1221" type="line"/>
      <point x="64" y="1221" type="line"/>
    </contour>
    <contour>
      <point x="1814" y="-813" type="curve"/>
      <point x="1763" y="-450" type="line"/>
      <point x="1631" y="-379"/>
      <point x="1384" y="-275"/>
      <point x="1216" y="-216" type="curve"/>
      <point x="1086" y="-470" type="line"/>
      <point x="1307" y="-550"/>
      <point x="1595" y="-689"/>
    </contour>
    <contour>
      <point x="695" y="-480" type="line"/>
      <point x="1206" y="-480" type="line"/>
      <point x="1352" y="-353" type="line"/>
      <point x="1432" y="-285"/>
      <point x="1477" y="-213"/>
      <point x="1477" y="-50" type="curve" smooth="yes"/>
      <point x="1477" y="30" type="line"/>
      <point x="1093" y="30" type="line"/>
      <point x="1093" y="-31" type="line" smooth="yes"/>
      <point x="1093" y="-123"/>
      <point x="1088" y="-156"/>
      <point x="1081" y="-208" type="curve"/>
      <point x="1130" y="-148" type="line"/>
      <point x="662" y="-148" type="line"/>
    </contour>
    <component base="_cap.shiro_left"/>
    <component base="_cap.shiro_right" xOffset="1399"/>
  </outline>
</glyph>
<glyph name="Nukta.gm.001" format="2">
  <outline>
    <contour>
      <point x="-971" y="-320" type="curve" smooth="yes"/>
      <point x="-849" y="-320"/>
      <point x="-787" y="-255"/>
      <point x="-787" y="-151" type="curve" smooth="yes"/>
      <point x="-787" y="-147" type="line" smooth="yes"/>
      <point x="-787" y="-45"/>
      <point x="-849" y="22"/>
      <point x="-971" y="22" type="curve" smooth="yes"/>
      <point x="-1093" y="22"/>
      <point x="-1155" y="-46"/>
      <point x="-1155" y="-147" type="curve" smooth="yes"/>
      <point x="-1155" y="-151" type="line" smooth="yes"/>
      <point x="-1155" y="-254"/>
      <point x="-1093" y="-320"/>
    </contour>
  </outline>
</glyph>
<glyph name="PairinHa.gm" format="2">
  <anchor x="800" y="100" name="_bottom"/>
  <anchor x="600" y="60" name="bottom1"/>
  <outline>
    <contour>
      <point x="8" y="-775" type="curve" smooth="yes"/>
      <point x="387" y="-775"/>
      <point x="564" y="-613"/>
      <point x="564" y="-370" type="curve" smooth="yes"/>
      <point x="564" y="78" type="line"/>
      <point x="180" y="78" type="line"/>
      <point x="182" y="-368" type="line" smooth="yes"/>
      <point x="182" y="-446"/>
      <point x="121" y="-488"/>
      <point x="1" y="-488" type="curve" smooth="yes"/>
      <point x="-113" y="-488"/>
      <point x="-192" y="-460"/>
      <point x="-192" y="-405" type="curve" smooth="yes"/>
      <point x="-192" y="-404" type="line" smooth="yes"/>
      <point x="-192" y="-381"/>
      <point x="-171" y="-365"/>
      <point x="-134" y="-365" type="curve" smooth="yes"/>
      <point x="70" y="-365" type="line"/>
      <point x="70" y="-100" type="line"/>
      <point x="-185" y="-100" type="line" smooth="yes"/>
      <point x="-420" y="-100"/>
      <point x="-552" y="-199"/>
      <point x="-552" y="-387" type="curve" smooth="yes"/>
      <point x="-552" y="-400" type="line" smooth="yes"/>
      <point x="-552" y="-599"/>
      <point x="-358" y="-775"/>
    </contour>
  </outline>
</glyph>
<glyph name="PairinRa.gm" format="2">
  <anchor x="800" y="100" name="_bottom"/>
  <anchor x="600" y="260" name="bottom1"/>
  <outline>
    <contour>
      <point x="901" y="-813" type="curve"/>
      <point x="850" y="-450" type="line"/>
      <point x="718" y="-379"/>
      <point x="471" y="-275"/>
      <point x="303" y="-216" type="curve"/>
      <point x="173" y="-470" type="line"/>
      <point x="394" y="-550"/>
      <point x="682" y="-689"/>
    </contour>
    <contour>
      <point x="-218" y="-480" type="line"/>
      <point x="293" y="-480" type="line"/>
      <point x="439" y="-353" type="line"/>
      <point x="519" y="-285"/>
      <point x="564" y="-213"/>
      <point x="564" y="-50" type="curve" smooth="yes"/>
      <point x="564" y="30" type="line"/>
      <point x="180" y="30" type="line"/>
      <point x="180" y="-31" type="line" smooth="yes"/>
      <point x="180" y="-123"/>
      <point x="175" y="-156"/>
      <point x="168" y="-208" type="curve"/>
      <point x="217" y="-148" type="line"/>
      <point x="-251" y="-148" type="line"/>
    </contour>
  </outline>
</glyph>
<glyph name="PairinVa.gm" format="2">
  <anchor x="800" y="100" name="_bottom"/>
  <anchor x="600" y="60" name="bottom1"/>
  <outline>
    <contour>
      <point x="-131" y="-505" type="curve"/>
      <point x="513" y="-505" type="line"/>
      <point x="513" y="-336" type="line"/>
      <point x="-68" y="-336" type="line"/>
      <point x="-109" y="-336"/>
      <point x="-132" y="-327"/>
      <point x="-132" y="-302" type="curve" smooth="yes"/>
      <point x="-132" y="-275"/>
      <point x="-109" y="-266"/>
      <point x="-70" y="-266" type="curve"/>
      <point x="564" y="-266" type="line"/>
      <point x="564" y="58" type="line"/>
      <point x="180" y="58" type="line"/>
      <point x="180" y="-97" type="line"/>
      <point x="-132" y="-97" type="line" smooth="yes"/>
      <point x="-313" y="-97"/>
      <point x="-424" y="-160"/>
      <point x="-424" y="-302" type="curve" smooth="yes"/>
      <point x="-424" y="-442"/>
      <point x="-313" y="-505"/>
    </contour>
    <contour>
      <point x="353" y="-769" type="curve" smooth="yes"/>
      <point x="441" y="-769"/>
      <point x="492" y="-760"/>
      <point x="559" y="-740" type="curve"/>
      <point x="575" y="-551" type="line"/>
      <point x="505" y="-569"/>
      <point x="444" y="-578"/>
      <point x="375" y="-578" type="curve" smooth="yes"/>
      <point x="217" y="-578"/>
      <point x="146" y="-546"/>
      <point x="127" y="-435" type="curve"/>
      <point x="-146" y="-435" type="line"/>
      <point x="-85" y="-671"/>
      <point x="71" y="-769"/>
    </contour>
  </outline>
</glyph>
<glyph name="Rha.gm" format="2">
  <advance width="1488"/>
  <anchor x="1184" y="-270" name="bottom"/>
  <anchor x="1732" y="-310" name="bottom1"/>
  <anchor x="1491" y="1200" name="top"/>
  <outline>
    <contour>
      <point x="11" y="942" type="line"/>
      <point x="1471" y="942" type="line"/>
      <point x="1456" y="1221" type="line"/>
      <point x="11" y="1221" type="line"/>
    </contour>
    <contour>
      <point x="343" y="-189" type="line"/>
      <point x="793" y="-189" type="line"/>
      <point x="485" y="110" type="line"/>
      <point x="94" y="124" type="line"/>
    </contour>
    <contour>
      <point x="1244" y="-493" type="curve"/>
      <point x="1506" y="-493"/>
      <point x="1642" y="-357"/>
      <point x="1642" y="-194" type="curve" smooth="yes"/>
      <point x="1642" y="-126"/>
      <point x="1621" y="-59"/>
      <point x="1544" y="30" type="curve" smooth="yes"/>
      <point x="1321" y="287" type="line"/>
      <point x="1082" y="102" type="line"/>
      <point x="1277" y="-111" type="line" smooth="yes"/>
      <point x="1301" y="-137"/>
      <point x="1315" y="-162"/>
      <point x="1315" y="-192" type="curve" smooth="yes"/>
      <point x="1315" y="-225"/>
      <point x="1285" y="-250"/>
      <point x="1231" y="-250" type="curve" smooth="yes"/>
      <point x="1184" y="-250"/>
      <point x="1153" y="-229"/>
      <point x="1153" y="-198" type="curve" smooth="yes"/>
      <point x="1153" y="-170"/>
      <point x="1187" y="-153"/>
      <point x="1227" y="-147" type="curve"/>
      <point x="1107" y="-5" type="line"/>
      <point x="936" y="-12"/>
      <point x="838" y="-97"/>
      <point x="838" y="-214" type="curve" smooth="yes"/>
      <point x="838" y="-381"/>
      <point x="1003" y="-493"/>
    </contour>
    <contour>
      <point x="696" y="2" type="curve"/>
      <point x="1220" y="2"/>
      <point x="1445" y="144"/>
      <point x="1445" y="353" type="curve" smooth="yes"/>
      <point x="1445" y="364" type="line" smooth="yes"/>
      <point x="1445" y="535"/>
      <point x="1297" y="641"/>
      <point x="1062" y="649" type="curve"/>
      <point x="1101" y="606" type="line"/>
      <point x="1101" y="655" type="line"/>
      <point x="1297" y="678"/>
      <point x="1402" y="807"/>
      <point x="1402" y="956" type="curve" smooth="yes"/>
      <point x="1402" y="1016" type="line"/>
      <point x="993" y="1016" type="line"/>
      <point x="993" y="977" type="line" smooth="yes"/>
      <point x="993" y="852"/>
      <point x="923" y="780"/>
      <point x="804" y="780" type="curve" smooth="yes"/>
      <point x="179" y="780" type="line"/>
      <point x="179" y="498" type="line"/>
      <point x="808" y="498" type="line" smooth="yes"/>
      <point x="996" y="498"/>
      <point x="1046" y="458"/>
      <point x="1046" y="403" type="curve" smooth="yes"/>
      <point x="1046" y="401" type="line" smooth="yes"/>
      <point x="1046" y="324"/>
      <point x="961" y="285"/>
      <point x="648" y="285" type="curve" smooth="yes"/>
      <point x="441" y="285"/>
      <point x="197" y="328"/>
      <point x="73" y="369" type="curve"/>
      <point x="94" y="124" type="line"/>
      <point x="215" y="78"/>
      <point x="422" y="2"/>
    </contour>
    <component base="_cap.shiro_left"/>
    <component base="_cap.shiro_right" xOffset="1228"/>
  </outline>
</glyph>
<glyph name="TippiDist.gm" format="2">
  <anchor x="500" y="1200" name="_top"/>
  <outline>
    <contour>
      <point x="-82" y="1353" type="curve"/>
      <point x="81" y="1353" type="line"/>
      <point x="73" y="1382"/>
      <point x="69" y="1406"/>
      <point x="69" y="1424" type="curve"/>
      <point x="69" y="1499"/>
      <point x="116" y="1538"/>
      <point x="207" y="1538" type="curve"/>
      <point x="298" y="1538"/>
      <point x="345" y="1499"/>
      <point x="345" y="1424" type="curve"/>
      <point x="345" y="1405"/>
      <point x="341" y="1381"/>
      <point x="333" y="1353" type="curve"/>
      <point x="495" y="1353" type="line"/>
      <point x="540" y="1401"/>
      <point x="575" y="1474"/>
      <point x="575" y="1548" type="curve"/>
      <point x="575" y="1714"/>
      <point x="436" y="1816"/>
      <point x="207" y="1816" type="curve"/>
      <point x="-15" y="1816"/>
      <point x="-161" y="1714"/>
      <point x="-161" y="1548" type="curve"/>
      <point x="-161" y="1474"/>
      <point x="-126" y="1401"/>
    </contour>
  </outline>
</glyph>
<glyph name="Virama.gm.alt" format="2">
  <anchor x="800" y="100" name="_bottom1"/>
  <outline>
    <contour>
      <point x="508" y="-1220" type="line"/>
      <point x="794" y="-1220" type="line"/>
      <point x="537" y="-842" type="line"/>
      <point x="209" y="-842" type="line"/>
    </contour>
  </outline>
</glyph>
<glyph name="_EEmatra" format="2">
  <advance width="659"/>
  <anchor x="1086" y="1401" name="top1"/>
  <outline>
    <contour>
      <point x="142" y="1169" type="line"/>
      <point x="520" y="1169" type="line"/>
      <point x="520" y="1273" type="line" smooth="yes"/>
      <point x="520" y="1592"/>
      <point x="330" y="1763"/>
      <point x="-19" y="1763" type="curve" smooth="yes"/>
      <point x="-346" y="1763"/>
      <point x="-539" y="1597"/>
      <point x="-539" y="1305" type="curve" smooth="yes"/>
      <point x="-539" y="1301" type="line"/>
      <point x="-158" y="1301" type="line"/>
      <point x="-158" y="1305" type="line"/>
      <point x="-154" y="1402"/>
      <point x="-98" y="1460"/>
      <point x="-16" y="1460" type="curve" smooth="yes"/>
      <point x="86" y="1460"/>
      <point x="142" y="1403"/>
      <point x="142" y="1273" type="curve" smooth="yes"/>
    </contour>
    <contour>
      <point x="136" y="0" type="line"/>
      <point x="520" y="0" type="line"/>
      <point x="520" y="992" type="line"/>
      <point x="136" y="992" type="line"/>
    </contour>
    <contour>
      <point x="-140" y="942" type="line"/>
      <point x="663" y="942" type="line"/>
      <point x="692" y="1221" type="line"/>
      <point x="-117" y="1221" type="line"/>
    </contour>
  </outline>
</glyph>
<glyph name="_Ematra" format="2">
  <advance width="654"/>
  <outline>
    <contour>
      <point x="136" y="1169" type="line"/>
      <point x="514" y="1169" type="line"/>
      <point x="514" y="1273" type="line" smooth="yes"/>
      <point x="514" y="1403"/>
      <point x="570" y="1460"/>
      <point x="672" y="1460" type="curve" smooth="yes"/>
      <point x="754" y="1460"/>
      <point x="810" y="1402"/>
      <point x="814" y="1305" type="curve"/>
      <point x="814" y="1301" type="line"/>
      <point x="1195" y="1301" type="line"/>
      <point x="1195" y="1305" type="line" smooth="yes"/>
      <point x="1195" y="1597"/>
      <point x="1002" y="1763"/>
      <point x="675" y="1763" type="curve" smooth="yes"/>
      <point x="326" y="1763"/>
      <point x="136" y="1592"/>
      <point x="136" y="1273" type="curve" smooth="yes"/>
    </contour>
    <contour>
      <point x="136" y="0" type="line"/>
      <point x="520" y="0" type="line"/>
      <point x="520" y="1004" type="line"/>
      <point x="136" y="1004" type="line"/>
    </contour>
    <contour>
      <point x="-36" y="942" type="line"/>
      <point x="771" y="942" type="line"/>
      <point x="794" y="1221" type="line"/>
      <point x="-12" y="1221" type="line"/>
    </contour>
  </outline>
</glyph>
<glyph name="_cap.shiro_left" format="2">
  <advance width="301"/>
  <outline>
    <contour>
      <point x="-36" y="942" type="line"/>
      <point x="123" y="942" type="line"/>
      <point x="123" y="1221" type="line"/>
      <point x="-12" y="1221" type="line"/>
    </contour>
  </outline>
</glyph>
<glyph name="_cap.shiro_right" format="2">
  <advance width="301"/>
  <outline>
    <contour>
      <point x="178" y="942" type="line"/>
      <point x="313" y="942" type="line"/>
      <point x="337" y="1221" type="line"/>
      <point x="178" y="1221" type="line"/>
    </contour>
  </outline>
</glyph>
<glyph name="_danda" format="2">
  <advance width="693"/>
  <outline>
    <contour>
      <point x="173" y="0" type="line"/>
      <point x="557" y="0" type="line"/>
      <point x="557" y="942" type="line"/>
      <point x="655" y="942" type="line"/>
      <point x="655" y="1221" type="line"/>
      <point x="173" y="1221" type="line"/>
    </contour>
    <component base="_cap.shiro_right" xOffset="392"/>
  </outline>
</glyph>
<glyph name="_danda001" format="2">
  <advance width="656"/>
  <outline>
    <contour>
      <point x="136" y="445" type="line"/>
      <point x="520" y="445" type="line"/>
      <point x="520" y="1061" type="line"/>
      <point x="136" y="1061" type="line"/>
    </contour>
    <contour>
      <point x="-36" y="942" type="line"/>
      <point x="668" y="942" type="line"/>
      <point x="692" y="1221" type="line"/>
      <point x="-12" y="1221" type="line"/>
    </contour>
  </outline>
</glyph>
<glyph name="_part.shiro" format="2">
  <advance width="1757"/>
  <outline>
    <contour>
      <point x="-36" y="942" type="line"/>
      <point x="1768" y="942" type="line"/>
      <point x="1796" y="1221" type="line"/>
      <point x="-12" y="1221" type="line"/>
    </contour>
  </outline>
</glyph>
<glyph name="question_alt" format="2">
  <advance width="1230"/>
  <outline>
    <contour>
      <point x="295" y="404" type="line"/>
      <point x="655" y="404" type="line"/>
      <point x="655" y="624" type="line"/>
      <point x="582" y="515" type="line"/>
      <point x="649" y="517" type="line" smooth="yes"/>
      <point x="964" y="526"/>
      <point x="1162" y="627"/>
      <point x="1162" y="898" type="curve" smooth="yes"/>
      <point x="1162" y="912" type="line" smooth="yes"/>
      <point x="1162" y="1183"/>
      <point x="957" y="1312"/>
      <point x="570" y="1312" type="curve" smooth="yes"/>
      <point x="360" y="1312"/>
      <point x="177" y="1264"/>
      <point x="78" y="1225" type="curve"/>
      <point x="32" y="902" type="line"/>
      <point x="197" y="954"/>
      <point x="366" y="988"/>
      <point x="520" y="988" type="curve" smooth="yes"/>
      <point x="701" y="988"/>
      <point x="749" y="960"/>
      <point x="749" y="894" type="curve" smooth="yes"/>
      <point x="749" y="889" type="line" smooth="yes"/>
      <point x="749" y="824"/>
      <point x="688" y="785"/>
      <point x="473" y="779" type="curve" smooth="yes"/>
      <point x="295" y="774" type="line"/>
    </contour>
    <contour>
      <point x="475" y="-35" type="curve" smooth="yes"/>
      <point x="624" y="-35"/>
      <point x="692" y="33"/>
      <point x="692" y="144" type="curve" smooth="yes"/>
      <point x="692" y="149" type="line" smooth="yes"/>
      <point x="692" y="261"/>
      <point x="624" y="331"/>
      <point x="475" y="331" type="curve" smooth="yes"/>
      <point x="325" y="331"/>
      <point x="258" y="261"/>
      <point x="258" y="149" type="curve" smooth="yes"/>
      <point x="258" y="144" type="line" smooth="yes"/>
      <point x="258" y="33"/>
      <point x="325" y="-35"/>
    </contour>
  </outline>
</glyph>
